<svg width="25" height="25" viewBox="0 0 25 25" fill="none" xmlns="http://www.w3.org/2000/svg">
<path d="M20.1016 8.73047L12.1016 13.7305L4.10156 8.73047V6.73047L12.1016 11.7305L20.1016 6.73047V8.73047ZM20.1016 4.73047H4.10156C2.99156 4.73047 2.10156 5.62047 2.10156 6.73047V18.7305C2.10156 19.2609 2.31228 19.7696 2.68735 20.1447C3.06242 20.5198 3.57113 20.7305 4.10156 20.7305H20.1016C20.632 20.7305 21.1407 20.5198 21.5158 20.1447C21.8908 19.7696 22.1016 19.2609 22.1016 18.7305V6.73047C22.1016 6.20004 21.8908 5.69133 21.5158 5.31626C21.1407 4.94118 20.632 4.73047 20.1016 4.73047Z" fill="black"/>
</svg>
