<svg width="25" height="25" viewBox="0 0 25 25" fill="none" xmlns="http://www.w3.org/2000/svg">
<path d="M12.1016 2.76953C6.60156 2.76953 2.10156 7.25953 2.10156 12.7895C2.10156 17.7895 5.76156 21.9395 10.5416 22.6895V15.6895H8.00156V12.7895H10.5416V10.5795C10.5416 8.06953 12.0316 6.68953 14.3216 6.68953C15.4116 6.68953 16.5516 6.87953 16.5516 6.87953V9.34953H15.2916C14.0516 9.34953 13.6616 10.1195 13.6616 10.9095V12.7895H16.4416L15.9916 15.6895H13.6616V22.6895C16.018 22.3174 18.1638 21.115 19.7115 19.2996C21.2592 17.4841 22.1069 15.1752 22.1016 12.7895C22.1016 7.25953 17.6016 2.76953 12.1016 2.76953Z" fill="black"/>
</svg>
