<svg width="25" height="25" viewBox="0 0 25 25" fill="none" xmlns="http://www.w3.org/2000/svg">
<path d="M12.1016 2.73047C10.7883 2.73047 9.48798 2.98913 8.27473 3.49167C7.06147 3.99422 5.95908 4.73082 5.03049 5.6594C3.15513 7.53476 2.10156 10.0783 2.10156 12.7305C2.10156 17.1505 4.97156 20.9005 8.94156 22.2305C9.44156 22.3105 9.60156 22.0005 9.60156 21.7305V20.0405C6.83156 20.6405 6.24156 18.7005 6.24156 18.7005C5.78156 17.5405 5.13156 17.2305 5.13156 17.2305C4.22156 16.6105 5.20156 16.6305 5.20156 16.6305C6.20156 16.7005 6.73156 17.6605 6.73156 17.6605C7.60156 19.1805 9.07156 18.7305 9.64156 18.4905C9.73156 17.8405 9.99156 17.4005 10.2716 17.1505C8.05156 16.9005 5.72156 16.0405 5.72156 12.2305C5.72156 11.1205 6.10156 10.2305 6.75156 9.52047C6.65156 9.27047 6.30156 8.23047 6.85156 6.88047C6.85156 6.88047 7.69156 6.61047 9.60156 7.90047C10.3916 7.68047 11.2516 7.57047 12.1016 7.57047C12.9516 7.57047 13.8116 7.68047 14.6016 7.90047C16.5116 6.61047 17.3516 6.88047 17.3516 6.88047C17.9016 8.23047 17.5516 9.27047 17.4516 9.52047C18.1016 10.2305 18.4816 11.1205 18.4816 12.2305C18.4816 16.0505 16.1416 16.8905 13.9116 17.1405C14.2716 17.4505 14.6016 18.0605 14.6016 18.9905V21.7305C14.6016 22.0005 14.7616 22.3205 15.2716 22.2305C19.2416 20.8905 22.1016 17.1505 22.1016 12.7305C22.1016 11.4172 21.8429 10.1169 21.3404 8.90363C20.8378 7.69038 20.1012 6.58799 19.1726 5.6594C18.244 4.73082 17.1417 3.99422 15.9284 3.49167C14.7151 2.98913 13.4148 2.73047 12.1016 2.73047Z" fill="black"/>
</svg>
