<svg width="25" height="25" viewBox="0 0 25 25" fill="none" xmlns="http://www.w3.org/2000/svg">
<path d="M7.90156 2.73047H16.3016C19.5016 2.73047 22.1016 5.33047 22.1016 8.53047V16.9305C22.1016 18.4687 21.4905 19.944 20.4028 21.0317C19.3151 22.1194 17.8398 22.7305 16.3016 22.7305H7.90156C4.70156 22.7305 2.10156 20.1305 2.10156 16.9305V8.53047C2.10156 6.99221 2.71263 5.51696 3.80034 4.42925C4.88805 3.34154 6.36331 2.73047 7.90156 2.73047ZM7.70156 4.73047C6.74678 4.73047 5.83111 5.10975 5.15598 5.78488C4.48085 6.46002 4.10156 7.37569 4.10156 8.33047V17.1305C4.10156 19.1205 5.71156 20.7305 7.70156 20.7305H16.5016C17.4563 20.7305 18.372 20.3512 19.0471 19.6761C19.7223 19.0009 20.1016 18.0852 20.1016 17.1305V8.33047C20.1016 6.34047 18.4916 4.73047 16.5016 4.73047H7.70156ZM17.3516 6.23047C17.6831 6.23047 18.001 6.36216 18.2354 6.59659C18.4699 6.83101 18.6016 7.14895 18.6016 7.48047C18.6016 7.81199 18.4699 8.12993 18.2354 8.36435C18.001 8.59877 17.6831 8.73047 17.3516 8.73047C17.02 8.73047 16.7021 8.59877 16.4677 8.36435C16.2333 8.12993 16.1016 7.81199 16.1016 7.48047C16.1016 7.14895 16.2333 6.83101 16.4677 6.59659C16.7021 6.36216 17.02 6.23047 17.3516 6.23047ZM12.1016 7.73047C13.4276 7.73047 14.6994 8.25725 15.6371 9.19493C16.5748 10.1326 17.1016 11.4044 17.1016 12.7305C17.1016 14.0566 16.5748 15.3283 15.6371 16.266C14.6994 17.2037 13.4276 17.7305 12.1016 17.7305C10.7755 17.7305 9.50371 17.2037 8.56603 16.266C7.62835 15.3283 7.10156 14.0566 7.10156 12.7305C7.10156 11.4044 7.62835 10.1326 8.56603 9.19493C9.50371 8.25725 10.7755 7.73047 12.1016 7.73047ZM12.1016 9.73047C11.3059 9.73047 10.5429 10.0465 9.98024 10.6091C9.41763 11.1718 9.10156 11.9348 9.10156 12.7305C9.10156 13.5261 9.41763 14.2892 9.98024 14.8518C10.5429 15.4144 11.3059 15.7305 12.1016 15.7305C12.8972 15.7305 13.6603 15.4144 14.2229 14.8518C14.7855 14.2892 15.1016 13.5261 15.1016 12.7305C15.1016 11.9348 14.7855 11.1718 14.2229 10.6091C13.6603 10.0465 12.8972 9.73047 12.1016 9.73047Z" fill="black"/>
</svg>
