<svg width="25" height="25" viewBox="0 0 25 25" fill="none" xmlns="http://www.w3.org/2000/svg">
<path d="M19.1016 3.73047C19.632 3.73047 20.1407 3.94118 20.5158 4.31626C20.8908 4.69133 21.1016 5.20004 21.1016 5.73047V19.7305C21.1016 20.2609 20.8908 20.7696 20.5158 21.1447C20.1407 21.5198 19.632 21.7305 19.1016 21.7305H5.10156C4.57113 21.7305 4.06242 21.5198 3.68735 21.1447C3.31228 20.7696 3.10156 20.2609 3.10156 19.7305V5.73047C3.10156 5.20004 3.31228 4.69133 3.68735 4.31626C4.06242 3.94118 4.57113 3.73047 5.10156 3.73047H19.1016ZM18.6016 19.2305V13.9305C18.6016 13.0659 18.2581 12.2367 17.6467 11.6253C17.0354 11.0139 16.2062 10.6705 15.3416 10.6705C14.4916 10.6705 13.5016 11.1905 13.0216 11.9705V10.8605H10.2316V19.2305H13.0216V14.3005C13.0216 13.5305 13.6416 12.9005 14.4116 12.9005C14.7829 12.9005 15.139 13.048 15.4015 13.3105C15.6641 13.5731 15.8116 13.9292 15.8116 14.3005V19.2305H18.6016ZM6.98156 9.29047C7.42713 9.29047 7.85444 9.11347 8.1695 8.79841C8.48456 8.48335 8.66156 8.05603 8.66156 7.61047C8.66156 6.68047 7.91156 5.92047 6.98156 5.92047C6.53335 5.92047 6.10349 6.09852 5.78655 6.41546C5.46962 6.73239 5.29156 7.16225 5.29156 7.61047C5.29156 8.54047 6.05156 9.29047 6.98156 9.29047ZM8.37156 19.2305V10.8605H5.60156V19.2305H8.37156Z" fill="black"/>
</svg>
