<svg width="5" height="5" viewBox="0 0 5 5" fill="none" xmlns="http://www.w3.org/2000/svg">
<path d="M0.871229 2.7292C1.08109 2.799 1.27174 2.91686 1.42799 3.07337C1.58424 3.22988 1.70178 3.42073 1.77123 3.6307L1.99523 4.3192C2.0135 4.3707 2.04685 4.41549 2.09095 4.44776C2.13504 4.48002 2.18783 4.49826 2.24244 4.50009C2.29704 4.50193 2.35094 4.48727 2.3971 4.45804C2.44326 4.42881 2.47954 4.38635 2.50123 4.3362L2.50173 4.3347L2.50773 4.3242L2.53223 4.2487L2.53173 4.2462L2.73173 3.6312C2.79573 3.4387 2.89973 3.2627 3.03723 3.1147L3.04373 3.1112C3.14262 3.00658 3.25653 2.91727 3.38173 2.8462L3.37973 2.8437C3.45973 2.7987 3.5434 2.7617 3.63073 2.7327L4.31973 2.5087C4.37263 2.48987 4.4184 2.45514 4.45077 2.40926C4.48314 2.36338 4.50052 2.3086 4.50052 2.25245C4.50052 2.1963 4.48314 2.14153 4.45077 2.09565C4.4184 2.04977 4.37263 2.01503 4.31973 1.9962L4.30573 1.9927L3.61673 1.7687C3.40744 1.69912 3.21723 1.58174 3.06118 1.42587C2.90514 1.27 2.78755 1.07992 2.71773 0.870703L2.49473 0.182203C2.47611 0.12896 2.44139 0.0828233 2.3954 0.0501795C2.3494 0.0175357 2.29438 0 2.23798 0C2.18157 0 2.12656 0.0175357 2.08056 0.0501795C2.03456 0.0828233 1.99985 0.12896 1.98123 0.182203L1.75723 0.870703L1.75173 0.887703C1.68149 1.09157 1.56574 1.27677 1.41327 1.42924C1.2608 1.58172 1.0756 1.69746 0.871729 1.7677L0.183229 1.9917C0.129754 2.01009 0.083353 2.04471 0.0505047 2.09074C0.0176564 2.13677 0 2.19191 0 2.24845C0 2.305 0.0176564 2.36014 0.0505047 2.40617C0.083353 2.45219 0.129754 2.48682 0.183229 2.5052L0.871229 2.7292Z" fill="white"/>
</svg>
