<svg width="24" height="24" viewBox="0 0 24 24" fill="none" xmlns="http://www.w3.org/2000/svg">
<path d="M10.5639 6.66103C10.5639 8.76622 8.85007 10.48 6.74489 10.48C4.63971 10.48 2.92589 8.76622 2.92589 6.66104C2.92589 4.55587 4.63976 2.84204 6.74489 2.84204C8.85004 2.84204 10.5639 4.55588 10.5639 6.66103ZM21.0741 6.66104C21.0741 8.76621 19.3603 10.48 17.2551 10.48C15.15 10.48 13.4361 8.7662 13.4361 6.66104C13.4361 4.55587 15.1499 2.84204 17.2551 2.84204C19.3603 2.84204 21.0741 4.55586 21.0741 6.66104ZM0.75 18.7741C0.75 15.4695 3.43994 12.7797 6.74498 12.7797C10.1023 12.7797 12.7394 15.5008 12.7394 18.7741V21.0616C12.7394 21.1149 12.6962 21.1582 12.6428 21.1582H0.846563C0.793244 21.1582 0.75 21.1149 0.75 21.0616V18.7741ZM15.3751 20.3324C15.403 18.3862 15.4353 16.1341 13.8272 13.8482C17.6614 11.1452 23.25 13.8394 23.25 18.7741V21.0616C23.25 21.1149 23.2068 21.1582 23.1534 21.1582H15.3664C15.3675 21.1261 15.3681 21.0939 15.3681 21.0616C15.3681 20.8239 15.3716 20.5806 15.3751 20.3324Z" stroke="black" stroke-width="1.5"/>
</svg>
