<svg xmlns="http://www.w3.org/2000/svg" viewBox="65.8234136329588 34.58472104 161.7213179775281 159.31650184" id="svg2" version="1.1" style="max-height: 500px" width="161.7213179775281" height="159.31650184">
  <defs id="defs6">
    <clipPath id="clipPath20" clipPathUnits="userSpaceOnUse">
      <path id="path18" d="M 0,212.611 H 227.261 V 0 H 0 Z"/>
    </clipPath>
    <linearGradient id="linearGradient72" spreadMethod="pad" gradientTransform="matrix(-15.711358,27.21287,27.21287,15.711358,118.70489,103.30134)" gradientUnits="userSpaceOnUse" y2="0" x2="1" y1="0" x1="0">
      <stop id="stop66" offset="0" style="stop-opacity:1;stop-color:#faaf40"/>
      <stop id="stop68" offset="0.48292622" style="stop-opacity:1;stop-color:#faaf40"/>
      <stop id="stop70" offset="1" style="stop-opacity:1;stop-color:#ff7e1e"/>
    </linearGradient>
    <clipPath id="clipPath82" clipPathUnits="userSpaceOnUse">
      <path id="path80" d="M 0,212.611 H 227.261 V 0 H 0 Z"/>
    </clipPath>
  </defs>
  
  <g transform="matrix(1.3333333,0,0,-1.3333333,0,283.48133)" id="g8">
    <text id="text12" style="font-variant:normal;font-weight:bold;font-stretch:normal;font-size:32.8649px;font-family:Barlow;-inkscape-font-specification:Barlow-Bold;writing-mode:lr-tb;fill:#568cdb;fill-opacity:1;fill-rule:nonzero;stroke:none" transform="matrix(1,0,0,-1,28.752,27.2139)" xml:space="preserve"><tspan id="tspan10" y="0" x="0 20.113319 39.174961">SFU</tspan></text>
    <g id="g14">
      <g clip-path="url(#clipPath20)" id="g16">
        <g transform="translate(99.0732,27.2221)" id="g22">
          <path id="path24" style="fill:#1c307a;fill-opacity:1;fill-rule:nonzero;stroke:none" d="M 0,0 C -1.334,0.566 -2.363,1.378 -3.085,2.435 -3.808,3.49 -4.168,4.719 -4.168,6.119 v 0.734 c 0,0.111 0.038,0.206 0.116,0.284 0.078,0.077 0.172,0.116 0.283,0.116 H 0.033 C 0.144,7.253 0.238,7.214 0.316,7.137 0.394,7.059 0.433,6.964 0.433,6.853 v -0.5 c 0,-0.89 0.411,-1.64 1.234,-2.251 0.822,-0.612 1.934,-0.917 3.335,-0.917 1.178,0 2.056,0.25 2.634,0.75 C 8.214,4.436 8.503,5.052 8.503,5.786 8.503,6.319 8.325,6.77 7.97,7.137 7.614,7.503 7.13,7.825 6.52,8.104 5.908,8.381 4.935,8.765 3.601,9.254 2.112,9.765 0.85,10.288 -0.184,10.821 c -1.033,0.534 -1.9,1.262 -2.601,2.185 -0.7,0.922 -1.05,2.061 -1.05,3.418 0,1.334 0.344,2.501 1.034,3.501 0.688,1.001 1.645,1.767 2.867,2.302 1.223,0.533 2.635,0.799 4.236,0.799 1.689,0 3.195,-0.299 4.518,-0.9 1.323,-0.601 2.356,-1.439 3.102,-2.518 0.744,-1.079 1.117,-2.329 1.117,-3.752 v -0.5 C 13.039,15.245 13,15.15 12.922,15.073 12.844,14.995 12.75,14.956 12.639,14.956 H 8.804 c -0.112,0 -0.206,0.039 -0.284,0.117 -0.078,0.077 -0.117,0.172 -0.117,0.283 v 0.267 c 0,0.934 -0.383,1.729 -1.15,2.385 -0.767,0.655 -1.817,0.983 -3.151,0.983 -1.046,0 -1.863,-0.222 -2.452,-0.667 C 1.061,17.88 0.767,17.269 0.767,16.49 c 0,-0.555 0.171,-1.022 0.517,-1.4 0.344,-0.378 0.855,-0.717 1.534,-1.018 0.678,-0.3 1.728,-0.706 3.151,-1.217 1.578,-0.578 2.818,-1.089 3.719,-1.534 0.9,-0.445 1.711,-1.106 2.434,-1.984 0.722,-0.878 1.084,-2.018 1.084,-3.418 0,-2.09 -0.768,-3.74 -2.302,-4.952 C 9.371,-0.245 7.292,-0.851 4.668,-0.851 2.89,-0.851 1.333,-0.567 0,0"/>
        </g>
        <g transform="translate(119.5313,27.3725)" id="g26">
          <path id="path28" style="fill:#1c307a;fill-opacity:1;fill-rule:nonzero;stroke:none" d="m 0,0 c -1.3,0.667 -2.313,1.605 -3.035,2.817 -0.722,1.212 -1.083,2.607 -1.083,4.186 v 15.206 c 0,0.111 0.038,0.205 0.117,0.283 0.077,0.078 0.171,0.117 0.283,0.117 h 3.902 c 0.11,0 0.205,-0.039 0.283,-0.117 0.077,-0.078 0.116,-0.172 0.116,-0.283 V 6.969 C 0.583,5.791 0.945,4.84 1.667,4.118 2.39,3.396 3.34,3.034 4.519,3.034 c 1.178,0 2.128,0.362 2.851,1.084 0.722,0.722 1.084,1.673 1.084,2.851 v 15.24 c 0,0.111 0.038,0.205 0.116,0.283 0.078,0.078 0.173,0.117 0.284,0.117 h 3.902 c 0.111,0 0.205,-0.039 0.283,-0.117 0.078,-0.078 0.117,-0.172 0.117,-0.283 V 7.003 C 13.156,5.424 12.794,4.029 12.072,2.817 11.349,1.605 10.338,0.667 9.038,0 7.737,-0.667 6.23,-1.001 4.519,-1.001 2.807,-1.001 1.301,-0.667 0,0"/>
        </g>
        <g transform="translate(141.2573,45.7797)" id="g30">
          <path id="path32" style="fill:#1c307a;fill-opacity:1;fill-rule:nonzero;stroke:none" d="m 0,0 v -5.702 c 0,-0.111 0.055,-0.167 0.167,-0.167 h 4.368 c 0.934,0 1.695,0.278 2.285,0.834 0.588,0.556 0.883,1.278 0.883,2.168 0,0.888 -0.295,1.617 -0.883,2.183 C 6.23,-0.116 5.469,0.167 4.535,0.167 H 0.167 C 0.055,0.167 0,0.111 0,0 m 7.637,-18.841 -4.169,9.237 c -0.045,0.088 -0.112,0.133 -0.2,0.133 H 0.167 C 0.055,-9.471 0,-9.526 0,-9.637 v -9.104 c 0,-0.112 -0.039,-0.206 -0.117,-0.283 -0.078,-0.079 -0.172,-0.118 -0.283,-0.118 h -3.902 c -0.112,0 -0.206,0.039 -0.283,0.118 -0.079,0.077 -0.117,0.171 -0.117,0.283 V 3.802 c 0,0.111 0.038,0.205 0.117,0.283 0.077,0.078 0.171,0.117 0.283,0.117 h 9.538 c 1.422,0 2.673,-0.289 3.751,-0.867 1.078,-0.578 1.912,-1.4 2.501,-2.468 0.589,-1.067 0.884,-2.301 0.884,-3.701 0,-1.513 -0.378,-2.808 -1.134,-3.886 C 10.482,-7.798 9.426,-8.56 8.07,-9.004 7.958,-9.049 7.925,-9.126 7.97,-9.237 l 4.535,-9.438 c 0.045,-0.089 0.067,-0.155 0.067,-0.2 0,-0.178 -0.122,-0.267 -0.367,-0.267 H 8.104 c -0.223,0 -0.379,0.101 -0.467,0.301"/>
        </g>
        <g transform="translate(160.6992,27.4057)" id="g34">
          <path id="path36" style="fill:#1c307a;fill-opacity:1;fill-rule:nonzero;stroke:none" d="M 0,0 C -1.312,0.688 -2.33,1.65 -3.052,2.885 -3.774,4.118 -4.135,5.546 -4.135,7.17 v 7.47 c 0,1.622 0.361,3.056 1.083,4.301 0.722,1.246 1.74,2.206 3.052,2.885 1.311,0.678 2.823,1.017 4.535,1.017 1.689,0 3.185,-0.333 4.486,-1 1.3,-0.667 2.312,-1.573 3.034,-2.718 0.722,-1.145 1.084,-2.418 1.084,-3.818 v -0.234 c 0,-0.112 -0.039,-0.206 -0.117,-0.284 -0.078,-0.078 -0.172,-0.116 -0.283,-0.116 H 8.837 c -0.111,0 -0.206,0.038 -0.283,0.116 -0.079,0.078 -0.117,0.172 -0.117,0.284 v 0.1 c 0,1.022 -0.356,1.884 -1.067,2.585 -0.712,0.7 -1.657,1.05 -2.835,1.05 C 3.334,18.808 2.373,18.436 1.65,17.69 0.928,16.945 0.567,15.974 0.567,14.772 V 7.036 c 0,-1.2 0.389,-2.174 1.167,-2.918 C 2.512,3.373 3.501,3.001 4.702,3.001 5.857,3.001 6.78,3.307 7.47,3.918 8.159,4.529 8.503,5.38 8.503,6.469 V 7.97 c 0,0.111 -0.055,0.167 -0.166,0.167 H 4.602 C 4.49,8.137 4.396,8.175 4.318,8.253 4.24,8.331 4.202,8.425 4.202,8.537 v 3.068 c 0,0.111 0.038,0.205 0.116,0.284 0.078,0.077 0.172,0.116 0.284,0.116 h 8.137 c 0.111,0 0.205,-0.039 0.283,-0.116 0.078,-0.079 0.117,-0.173 0.117,-0.284 V 7.203 c 0,-1.69 -0.356,-3.157 -1.067,-4.402 C 11.36,1.556 10.354,0.605 9.054,-0.05 7.753,-0.706 6.247,-1.034 4.535,-1.034 2.823,-1.034 1.311,-0.689 0,0"/>
        </g>
        <g transform="translate(182.3081,45.9467)" id="g38">
          <path id="path40" style="fill:#1c307a;fill-opacity:1;fill-rule:nonzero;stroke:none" d="m 0,0 h 10.938 c 0.111,0 0.206,0.039 0.284,0.117 0.077,0.077 0.116,0.172 0.116,0.283 v 3.235 c 0,0.111 -0.039,0.205 -0.116,0.283 -0.078,0.078 -0.173,0.117 -0.284,0.117 H -4.468 C -4.58,4.035 -4.674,3.996 -4.752,3.918 -4.83,3.84 -4.869,3.746 -4.869,3.635 v -22.543 c 0,-0.112 0.039,-0.206 0.117,-0.283 0.078,-0.079 0.172,-0.118 0.284,-0.118 h 15.406 c 0.111,0 0.206,0.039 0.284,0.118 0.077,0.077 0.116,0.171 0.116,0.283 v 3.234 c 0,0.111 -0.039,0.206 -0.116,0.284 -0.078,0.077 -0.173,0.117 -0.284,0.117 H 0 c -0.111,0 -0.167,0.055 -0.167,0.167 v 5.402 c 0,0.111 0.056,0.167 0.167,0.167 h 2.943 c 0.02,-0.003 0.039,-0.007 0.06,-0.007 h 5.795 c 0.237,0 0.429,0.192 0.429,0.429 v 3.182 c 0,0.238 -0.192,0.429 -0.429,0.429 H 7.189 c -0.006,0 -0.012,0.002 -0.019,0.002 H 0 c -0.111,0 -0.167,0.055 -0.167,0.166 v 5.169 C -0.167,-0.056 -0.111,0 0,0"/>
        </g>
        <g transform="translate(168.2271,126.8735)" id="g42">
          <path id="path44" style="fill:#1c307a;fill-opacity:1;fill-rule:nonzero;stroke:none" d="m 0,0 c 0,-32.126 -26.043,-58.169 -58.169,-58.169 -32.126,0 -58.169,26.043 -58.169,58.169 0,32.126 26.043,58.169 58.169,58.169 C -26.043,58.169 0,32.126 0,0"/>
        </g>
        <g transform="translate(97.8608,85.2954)" id="g46">
          <path id="path48" style="fill:#568cdb;fill-opacity:1;fill-rule:nonzero;stroke:none" d="M 0,0 19.292,26.501 6.773,50.941 31.523,62.824 16.013,88.496 68.709,27.757 c 1.081,4.431 1.657,9.058 1.657,13.821 0,32.126 -26.043,58.169 -58.169,58.169 -32.126,0 -58.169,-26.043 -58.169,-58.169 0,-32.126 26.043,-58.169 58.169,-58.169 0.345,0 0.688,0.007 1.031,0.013 z"/>
        </g>
        <g transform="translate(129.3843,148.1196)" id="g50">
          <path id="path52" style="fill:#ffca61;fill-opacity:1;fill-rule:nonzero;stroke:none" d="m 0,0 -15.749,26.845 -20.34,-52.174 z"/>
        </g>
      </g>
    </g>
    <g id="g54">
      <g id="g56">
        <g id="g62">
          <g id="g64">
            <path id="path74" style="fill:url(#linearGradient72);stroke:none" d="m 93.233,122.713 36.171,-13.235 -19.877,24.808 z"/>
          </g>
        </g>
      </g>
    </g>
    <g id="g76">
      <g clip-path="url(#clipPath82)" id="g78">
        <g transform="translate(129.4038,109.478)" id="g84">
          <path id="path86" style="fill:#ffca61;fill-opacity:1;fill-rule:nonzero;stroke:none" d="M 0,0 -31.543,-24.183 -21.944,8.03 Z"/>
        </g>
      </g>
    </g>
  </g>
</svg>