<svg width="181" height="181" viewBox="0 0 181 181" fill="none" xmlns="http://www.w3.org/2000/svg">
<path fill-rule="evenodd" clip-rule="evenodd" d="M159.613 20.1934L164.693 155.255L48.7969 129.285L66.7242 6.59961L159.613 20.1934Z" fill="#204173"/>
<path fill-rule="evenodd" clip-rule="evenodd" d="M48.7969 129.304L164.693 155.273L149.391 168.427L48.7969 129.304Z" fill="#172E51"/>
<path fill-rule="evenodd" clip-rule="evenodd" d="M159.628 20.1934L149.407 168.408L33.5117 142.438L66.74 6.59961L159.628 20.1934Z" fill="#2B5DAA"/>
<path fill-rule="evenodd" clip-rule="evenodd" d="M97.4551 163.405C110.043 165.933 116.152 168.635 123.333 168.33C149.945 126.535 150.053 72.9537 154.5 46.5L97.4551 163.405Z" fill="#061D3F"/>
<path fill-rule="evenodd" clip-rule="evenodd" d="M87.2656 161.292C99.8539 163.82 109.546 166.302 116.727 165.997C154.236 112.736 150.053 72.9537 154.5 46.5L87.2656 161.292Z" fill="#092859"/>
<path fill-rule="evenodd" clip-rule="evenodd" d="M69.5254 158.119C82.9663 161.741 95.9863 162.648 108.636 161.128C143.098 130.079 148.742 83.7731 155.808 38.2197L69.5254 158.119Z" fill="#0C3778"/>
<path fill-rule="evenodd" clip-rule="evenodd" d="M51.6074 154.225L149.374 68.7861C135.628 130.732 110.476 172.428 51.6074 154.225Z" fill="#1149A2"/>
<path fill-rule="evenodd" clip-rule="evenodd" d="M87.6191 150.282L104.046 140.343L93.21 138.526L87.6191 150.282Z" fill="#0D2244"/>
<path fill-rule="evenodd" clip-rule="evenodd" d="M29.0544 148.398L28.5938 149.415C56.3319 156.543 81.7137 159.969 94.8164 144.095C126.825 134.004 140.935 102.365 150.386 65.12L159.643 20.2139L29.0544 148.398Z" fill="#1A5ECA"/>
<path fill-rule="evenodd" clip-rule="evenodd" d="M69.5254 148.253L108.636 127.412L84.578 124.122L69.5254 148.253Z" fill="#193A6F"/>
<path fill-rule="evenodd" clip-rule="evenodd" d="M22.9698 144.27L22.0957 146.594C49.6216 154.37 73.5711 154.505 87.5697 133.36C136.934 129.566 145.87 71.6854 159.595 20.2139L22.9698 144.27Z" fill="#2F77E9"/>
<path fill-rule="evenodd" clip-rule="evenodd" d="M53.3633 144.08C72.503 135.899 90.7576 126.24 108.753 116.148L77.2626 109.189L53.3633 144.08Z" fill="#0C3370"/>
<path fill-rule="evenodd" clip-rule="evenodd" d="M15.5957 141.782C43.3123 152.393 65.0927 145.647 80.0231 118.89C113.294 124.922 134.111 103.086 145.868 60.9748L159.651 20.1934L66.7622 6.59961L15.5957 141.782Z" fill="#5B94ED"/>
<path fill-rule="evenodd" clip-rule="evenodd" d="M15.5957 141.782C43.3123 152.393 65.0927 145.647 80.0231 118.89C113.294 124.922 134.111 103.086 145.868 60.9748L159.651 20.1934L66.7622 6.59961L15.5957 141.782Z" fill="#5B94ED"/>
<path fill-rule="evenodd" clip-rule="evenodd" d="M78.6283 121.034C71.8503 114.78 68.8571 105.151 71.577 95.0025C75.8762 78.9555 92.8356 67.6897 109.461 69.8397C122.628 71.5432 131.636 81.1569 132.673 93.058C120.419 113.621 103.211 123.097 79.8766 118.866C79.4665 119.605 79.0492 120.328 78.6283 121.034Z" fill="#1C307A"/>
<path fill-rule="evenodd" clip-rule="evenodd" d="M87.5959 74.5283C88.1248 74.2167 88.6606 73.9181 89.2075 73.6324C95.1329 70.5377 101.72 69.1587 108.049 69.6869C108.293 69.7074 108.538 69.7308 108.786 69.757L108.79 69.7574L108.923 69.7721L108.98 69.7786L109.081 69.7901L109.243 69.8095L109.297 69.8164L109.423 69.8326L109.488 69.8405L109.563 69.8509L109.642 69.861L109.703 69.8696L109.797 69.8829L109.833 69.888C115.46 70.6867 120.551 73 124.519 76.5797C128.904 80.5346 131.696 85.8386 132.509 91.7525C132.57 92.1889 132.621 92.6271 132.657 93.0678L132.52 93.2952C132.473 93.375 132.427 93.4545 132.376 93.5344L132.24 93.7654L132.229 93.778L132.088 94.0104C132.038 94.0892 131.991 94.168 131.941 94.2468L131.797 94.4792V94.4831L131.653 94.7076L131.639 94.735L131.502 94.9497C131.455 95.0271 131.405 95.1048 131.354 95.1821L131.221 95.389L131.189 95.4405L131.059 95.6437C131.009 95.72 130.959 95.7966 130.908 95.8729L130.786 96.0636L130.746 96.1244L130.617 96.3201L130.588 96.3629L130.462 96.5543L130.34 96.7335L130.3 96.7935L130.178 96.9774L130.124 97.054L130.005 97.2267L129.872 97.4221L129.854 97.4512L129.732 97.6257L129.671 97.7156L129.552 97.8869L129.519 97.9329L129.397 98.1085L129.286 98.2639L129.217 98.3621L129.102 98.5219L129.03 98.623L128.933 98.7593L128.84 98.8895L128.761 98.9971L128.652 99.1475L128.57 99.259L128.465 99.4004L128.408 99.4799L128.303 99.6217L128.196 99.7627L128.109 99.8807L128.005 100.019L127.883 100.181L127.836 100.241L127.742 100.365L127.645 100.492L127.544 100.623L127.436 100.761L127.361 100.86L127.293 100.946L127.177 101.093L127.08 101.217L126.972 101.351L126.879 101.467L126.706 101.685L126.613 101.799L126.501 101.936L126.411 102.049L126.235 102.261L126.228 102.268L126.148 102.366L126.026 102.513L125.936 102.622L125.803 102.781L125.738 102.856L125.699 102.902L125.548 103.082L125.462 103.183L125.454 103.191L109.948 75.7155L114.514 89.5705L100.116 93.8503L103.321 106.894L89.7903 118.843L90.3012 119.852L90.1357 119.851L90.0746 119.851L89.9017 119.85L89.8406 119.849L89.6175 119.846L89.5817 119.846L89.3874 119.842L89.3227 119.841L89.1284 119.837L89.0961 119.836L88.8691 119.83L88.808 119.828L88.632 119.823L88.5709 119.82L88.3478 119.812L88.3081 119.811L88.1138 119.803L88.0491 119.8L87.8475 119.791L87.8186 119.79L87.592 119.778L87.5309 119.775L87.351 119.765L87.2899 119.761L87.0633 119.748L87.0201 119.745L86.8293 119.733L86.7611 119.728L86.5559 119.714L86.5271 119.712L86.297 119.695L86.2359 119.691L86.0525 119.676L85.9949 119.672L85.7644 119.652L85.7212 119.648L85.5272 119.632L85.4622 119.626L85.2465 119.606L85.2247 119.604L84.9911 119.582L84.93 119.575L84.7427 119.557L84.6851 119.551L84.4514 119.527L84.4047 119.521L84.2139 119.5L84.1454 119.493L83.9262 119.468L83.9083 119.465L83.6708 119.438L83.6058 119.43L83.4189 119.406L83.3612 119.4L83.1273 119.369L83.077 119.363L82.8827 119.337L82.8181 119.328L82.5915 119.297L82.5771 119.296L82.3396 119.262L82.271 119.253L82.0806 119.225L82.0265 119.217L81.789 119.182L81.7353 119.174L81.541 119.144L81.4725 119.133L81.2385 119.096L81.2314 119.095L80.9904 119.056L80.9219 119.045L80.7315 119.012L80.6739 119.003L80.4329 118.962L80.3788 118.953L80.1845 118.919L80.1163 118.907L79.8714 118.863L79.7059 119.158L79.6522 119.255L79.5405 119.453L79.4758 119.566L79.3715 119.747L79.303 119.865L79.206 120.039L79.134 120.159L79.0331 120.33L78.965 120.451L78.8677 120.619L78.7921 120.741L78.7022 120.899L78.6231 121.027C78.3641 120.789 78.1121 120.546 77.8639 120.297C77.2847 119.716 76.7345 119.111 76.22 118.481L76.1694 118.416L76.1227 118.359L76.1156 118.351L76.0004 118.209L75.9895 118.193C75.1512 117.14 74.4066 116.022 73.7518 114.849L73.7195 114.794L73.6728 114.706C72.0107 111.668 70.9853 108.28 70.6759 104.703C70.4385 101.937 70.6361 99.1223 71.2405 96.3449L71.2732 96.2132L71.2837 96.1586C71.3701 95.7736 71.4675 95.3865 71.5718 94.999C71.6689 94.6267 71.7768 94.2568 71.8884 93.8913L71.8954 93.8722L71.9277 93.7629C72.6616 91.4291 73.6872 89.1417 74.9931 86.9525C77.2992 83.0835 80.4039 79.6553 84.0699 76.8847L84.0917 76.8671L84.1886 76.7948L84.2786 76.7282L84.3183 76.6984C85.2933 75.9763 86.3007 75.3018 87.344 74.6776L87.3833 74.6524L87.4807 74.5955L87.5562 74.5498L87.5959 74.5283Z" fill="#3A79D5"/>
<path d="M112.799 89.15L111.649 74.6188L92.5823 100.796L112.799 89.15Z" fill="#FFCA61"/>
<path fill-rule="evenodd" clip-rule="evenodd" d="M102.514 95.1367L109.479 108.856L92.5371 99.8252L102.514 95.1367Z" fill="#FE8E29"/>
<path d="M108.744 108.286L89.8083 119.684L100.82 103.172L108.744 108.286Z" fill="#FFCA61"/>
<path fill-rule="evenodd" clip-rule="evenodd" d="M147.388 56.2192L53.7148 40.8271L66.6696 6.59961L159.562 20.1933L147.388 56.2192Z" fill="#9FC3FA"/>
</svg>
