<svg width="927" height="582" viewBox="0 0 927 582" fill="none" xmlns="http://www.w3.org/2000/svg">
<path fill-rule="evenodd" clip-rule="evenodd" d="M516.121 488.538L917.124 451.33L926.79 428.33L812.954 291.538L411.307 344.163L516.121 488.538Z" fill="#0B2346"/>
<path fill-rule="evenodd" clip-rule="evenodd" d="M882.76 454.303L917.125 451.33L926.791 428.33L882.76 454.303Z" fill="#061428"/>
<path fill-rule="evenodd" clip-rule="evenodd" d="M516.121 488.538L519.773 463.538L444.92 363.908L411.307 344.163L516.121 488.538Z" fill="#0C2548"/>
<path fill-rule="evenodd" clip-rule="evenodd" d="M883.834 454.21L917.126 451.33L926.791 428.33L883.834 454.21Z" fill="#07152A"/>
<path fill-rule="evenodd" clip-rule="evenodd" d="M516.121 488.538L554.138 485.007L519.773 463.538L516.121 488.538Z" fill="#07152A"/>
<path fill-rule="evenodd" clip-rule="evenodd" d="M519.786 463.538L926.803 428.33L822.633 268.538L403.803 309.163L519.786 463.538Z" fill="#133F7D"/>
<path fill-rule="evenodd" clip-rule="evenodd" d="M519.787 463.538L926.804 428.33L679.802 333.538L519.787 463.538Z" fill="#0F3161"/>
<path fill-rule="evenodd" clip-rule="evenodd" d="M500.321 432.387L504.724 431.538L458.545 368.538L453.068 369.432L500.321 432.387Z" fill="#061428"/>
<path fill-rule="evenodd" clip-rule="evenodd" d="M469.936 389.037L490.448 370.188L488.623 365.188L467.037 385.082L469.936 389.037Z" fill="#081932"/>
<path fill-rule="evenodd" clip-rule="evenodd" d="M434 259.538C434 259.538 488.64 389.994 501.85 431.008C504.212 438.117 511.086 442.654 518.603 441.895C581.75 435.442 860.647 406.966 914.558 401.461C916.599 401.255 918.317 400.055 919.284 398.261C920.25 396.467 920.25 394.315 919.284 392.522C901.457 359.096 833.8 232.538 833.8 232.538L434 259.538Z" fill="#2067C9"/>
<path fill-rule="evenodd" clip-rule="evenodd" d="M598.182 435.538C598.182 435.538 598.397 434.367 598.612 432.704C599.578 426.116 604.947 421.051 611.606 420.406C652.522 416.434 792.455 402.84 828.216 399.367C830.471 399.153 832.619 399.835 834.338 401.258C836.056 402.68 837.022 404.727 837.237 406.933C837.451 409.91 837.666 412.538 837.666 412.538L598.182 435.538Z" fill="#0A2141"/>
<path fill-rule="evenodd" clip-rule="evenodd" d="M473.604 268.538L503.136 352.877L592.809 346.034L584.862 327.376L691.395 320.094L700.845 337.784L861.29 325.538L823.702 244.538L473.604 268.538Z" fill="#1A54A4"/>
<path fill-rule="evenodd" clip-rule="evenodd" d="M592.812 331.243L598.719 345.582L694.298 338.284L687.855 324.284L592.812 331.243Z" fill="#1A54A4"/>
<path fill-rule="evenodd" clip-rule="evenodd" d="M446.436 259.538L833.8 232.538C833.8 232.538 846.794 51.3475 849.909 8.52853C850.123 6.25153 849.264 4.01453 847.653 2.38453C846.042 0.755528 843.786 -0.109473 841.531 0.0105267C789.231 2.75953 524.187 16.6775 463.188 19.8795C456.208 20.2505 450.624 26.0115 450.516 33.0735C449.55 82.2826 446.436 259.538 446.436 259.538Z" fill="#3D81E0"/>
<path fill-rule="evenodd" clip-rule="evenodd" d="M455.895 232.537L828.565 209.118L841.183 11.6372L462.75 31.0178L455.895 232.537Z" fill="#1B212D"/>
<path fill-rule="evenodd" clip-rule="evenodd" d="M627.392 356.151C626.318 356.245 625.244 356.83 624.707 357.741C624.063 358.653 623.955 359.791 624.277 360.833C627.821 371.986 637.272 401.631 640.279 410.798C640.816 412.4 642.32 413.433 644.038 413.285C660.147 411.862 739.402 404.86 760.559 402.995C761.74 402.891 762.813 402.217 763.35 401.192C763.887 400.166 763.995 398.919 763.458 397.855C757.981 386.364 743.913 357.109 739.939 348.781C739.295 347.431 737.899 346.623 736.395 346.752C721.79 348.013 646.615 354.491 627.392 356.151Z" fill="#1A54A4"/>
<path fill-rule="evenodd" clip-rule="evenodd" d="M519.355 252.003V255.475L523.974 262.218L787.085 243.538L783.971 233.538L519.355 252.003Z" fill="#1A54A4"/>
<path fill-rule="evenodd" clip-rule="evenodd" d="M99.7734 524.038L249.773 581.038L375.773 511.038V500.038L244.773 465.038L99.7734 513.038V524.038Z" fill="#103364"/>
<path fill-rule="evenodd" clip-rule="evenodd" d="M99.7734 513.038L249.773 570.038L375.773 500.038L244.773 454.038L99.7734 513.038Z" fill="#1D5FBB"/>
<path fill-rule="evenodd" clip-rule="evenodd" d="M258.575 576.122L249.775 570.038L375.775 500.038L364.176 517.472L258.575 576.122Z" fill="#174A93"/>
<path fill-rule="evenodd" clip-rule="evenodd" d="M375.775 500.038L249.775 570.038L375.775 500.038Z" fill="#216DD6"/>
<path fill-rule="evenodd" clip-rule="evenodd" d="M191.756 463.038V510.038L240.756 487.038V442.038L191.756 463.038Z" fill="#264D84"/>
<path fill-rule="evenodd" clip-rule="evenodd" d="M191.756 467.038V510.038L240.756 487.038L191.756 467.038Z" fill="#1D3B65"/>
<path fill-rule="evenodd" clip-rule="evenodd" d="M240.756 447.038L191.756 510.038L240.756 487.038V447.038Z" fill="#1F4274"/>
<path fill-rule="evenodd" clip-rule="evenodd" d="M191.758 463.038V510.038L181.758 503.038V464.038L191.758 463.038Z" fill="#102747"/>
<path fill-rule="evenodd" clip-rule="evenodd" d="M191.758 467.038V510.038L181.758 486.038L191.758 467.038Z" fill="#173359"/>
<path fill-rule="evenodd" clip-rule="evenodd" d="M27.7558 541.038L17.7558 533.038L0.755859 146.038L477.756 12.0376L487.756 14.0376L27.7558 541.038Z" fill="#123A72"/>
<path fill-rule="evenodd" clip-rule="evenodd" d="M27.7558 541.038L11.7559 149.038L487.756 14.0376L481.756 353.038C322.456 412.916 169.356 474.954 27.7558 541.038Z" fill="#184D98"/>
<path fill-rule="evenodd" clip-rule="evenodd" d="M35.5569 521.557L20.752 158.852L480.713 27.3315L474.903 340.377C324.425 398.482 171.043 465.206 35.5569 521.557Z" fill="#1B212D"/>
<path fill-rule="evenodd" clip-rule="evenodd" d="M35.5569 521.557L20.752 158.852L260.711 90.2324V426.967L35.5569 521.557Z" fill="#1B212D"/>
<path fill-rule="evenodd" clip-rule="evenodd" d="M21.5039 177.557L22.3466 198.074L479.965 67.3319L480.339 46.3765L21.5039 177.557Z" fill="#10141B"/>
<path fill-rule="evenodd" clip-rule="evenodd" d="M260.713 109.056V131.005L320.585 112.859L320.304 92.124L260.713 109.056Z" fill="#1B212D"/>
<path fill-rule="evenodd" clip-rule="evenodd" d="M78.4707 161.52L79.9695 198.074L140.779 164.765L141.154 143.81L78.4707 161.52Z" fill="#1B212D"/>
<path fill-rule="evenodd" clip-rule="evenodd" d="M260.713 147.781V129.963L479.965 67.332L479.684 84.2332L260.713 147.781Z" fill="#38455D"/>
<path d="M260.756 106.556V429.968" stroke="#2E3440" stroke-width="1.73" stroke-miterlimit="1.5" stroke-linecap="round" stroke-linejoin="round"/>
<path fill-rule="evenodd" clip-rule="evenodd" d="M21.5023 177.557L20.752 158.852L480.713 27.3315L480.337 46.3765L21.5023 177.557Z" fill="#181818"/>
<path d="M439.113 51.8804C436.948 52.4824 435.193 51.2571 435.193 49.1437C435.193 47.0302 436.948 44.8288 439.113 44.2268C441.278 43.6248 443.033 44.85 443.033 46.9635C443.033 49.077 441.278 51.2783 439.113 51.8804Z" fill="#79CF50"/>
<path d="M453.223 47.9009C451.058 48.5029 449.303 47.2776 449.303 45.1642C449.303 43.0507 451.058 40.8493 453.223 40.2473C455.388 39.6453 457.143 40.8705 457.143 42.984C457.143 45.0975 455.388 47.2989 453.223 47.9009Z" fill="#EFBF41"/>
<path d="M467.623 43.9209C465.458 44.5229 463.703 43.2977 463.703 41.1842C463.703 39.0707 465.458 36.8693 467.623 36.2673C469.788 35.6653 471.543 36.8906 471.543 39.004C471.543 41.1175 469.788 43.3189 467.623 43.9209Z" fill="#DF615B"/>
<path fill-rule="evenodd" clip-rule="evenodd" d="M252.459 430.437L269.159 423.454L269.759 432.038L255.759 436.038L252.459 430.437Z" fill="#184D98"/>
</svg>
