<svg width="649" height="450" viewBox="0 0 649 450" fill="none" xmlns="http://www.w3.org/2000/svg">
<path d="M0.712891 29.0002H561.713V388H0.712891V29.0002Z" fill="#7CA6EE"/>
<path d="M87.4983 305.5L177.5 2.5L643.858 144.915L545 444.5L87.4983 305.5Z" fill="#3B71CD"/>
<path d="M327.247 198.477L87.4996 305.5L174.691 12.221L327.247 198.477Z" fill="#2C569E"/>
<path d="M317.519 193.406L87.4983 305.5L177.5 2.49994L317.519 193.406Z" fill="#3565B7"/>
<path d="M633.991 171.018L545.002 444.5L427.919 248.86L633.991 171.018Z" fill="#0E3880"/>
<path d="M643.998 144.5L545 444.5L434.793 246.185L643.998 144.5Z" fill="#164BA7"/>
<path d="M326.306 346.069L166.049 39.8848L177.5 2.49994L643.998 144.5L628.498 191L326.306 346.069Z" fill="#3D7EED"/>
</svg>
