<svg width="14" height="20" viewBox="0 0 14 20" fill="none" xmlns="http://www.w3.org/2000/svg">
<path fill-rule="evenodd" clip-rule="evenodd" d="M7.1862 14.8604C10.8681 14.8604 13.8529 11.6704 13.8529 7.73535C13.8529 3.80032 10.8681 0.610352 7.1862 0.610352C3.5043 0.610352 0.519531 3.80032 0.519531 7.73535C0.519531 11.6704 3.5043 14.8604 7.1862 14.8604ZM7.18719 11.2978C9.35302 11.2978 11.1088 9.52556 11.1088 7.33944C11.1088 5.15331 9.35302 3.3811 7.18719 3.3811C5.02137 3.3811 3.26562 5.15331 3.26562 7.33944C3.26562 9.52556 5.02137 11.2978 7.18719 11.2978Z" fill="white"/>
<path d="M7.38277 19.6104L12.4808 12.0895H1.89258L7.38277 19.6104Z" fill="white"/>
</svg>
