<svg width="395" height="395" viewBox="0 0 395 395" fill="none" xmlns="http://www.w3.org/2000/svg">
<g clip-path="url(#clip0)">
<path fill-rule="evenodd" clip-rule="evenodd" d="M97.127 342.285L200.318 394.761L311.049 343.719V324.655L200.318 307.722L97.3178 321.146L97.127 342.285Z" fill="#071121"/>
<path fill-rule="evenodd" clip-rule="evenodd" d="M97.127 321.222L200.318 367.503L311.049 324.655L200.318 280.464L97.127 321.222Z" fill="#0C1D39"/>
<path fill-rule="evenodd" clip-rule="evenodd" d="M200.318 322.878V367.503L311.049 324.655L200.318 322.878Z" fill="#0A1930"/>
<path fill-rule="evenodd" clip-rule="evenodd" d="M151.549 315.701L195.51 335.418L242.684 317.164V287.825L195.51 298.337L151.549 297.368V315.701Z" fill="#0B1B34"/>
<path fill-rule="evenodd" clip-rule="evenodd" d="M151.549 315.701L166.281 303.426L151.549 297.368V315.701Z" fill="#0C1F3C"/>
<path fill-rule="evenodd" clip-rule="evenodd" d="M173.197 302.71L195.509 335.418V298.337L173.197 302.71Z" fill="#0C1F3C"/>
<path fill-rule="evenodd" clip-rule="evenodd" d="M195.51 298.337V335.418L242.684 317.164V287.825L195.51 298.337Z" fill="#0E2445"/>
<path fill-rule="evenodd" clip-rule="evenodd" d="M242.684 287.825L224.291 298.337L242.684 317.164V287.825Z" fill="#133260"/>
<path fill-rule="evenodd" clip-rule="evenodd" d="M195.51 298.337V335.418L210.735 307.929L195.51 298.337Z" fill="#133260"/>
<path fill-rule="evenodd" clip-rule="evenodd" d="M161.896 287.736L186.845 279.816L190.527 264.008L267.805 230.831L272.218 247.117L273.773 262.294C273.313 268.024 274.694 277.826 272.28 282.853C269.986 287.626 262.264 287.667 257.425 291.525L180.668 318.808C170.887 319.488 164.354 314.989 159.984 307.007L161.896 287.736Z" fill="#071121"/>
<path fill-rule="evenodd" clip-rule="evenodd" d="M188.06 274.624L272.87 281.292C262.176 292.04 214.651 306.945 180.668 318.808C170.887 319.488 164.354 314.989 159.984 307.007L161.896 287.736L186.845 279.817L188.06 274.624Z" fill="#040B15"/>
<path fill-rule="evenodd" clip-rule="evenodd" d="M174.092 282.827L176.498 279.816H220.619L223.025 282.827H174.092Z" fill="#050E1A"/>
<path d="M223.583 284.147H173.545V294.8H223.583V284.147Z" fill="#060F1D"/>
<path d="M198.598 290.441C212.416 290.441 223.618 287.624 223.618 284.148C223.618 280.673 212.416 277.855 198.598 277.855C184.781 277.855 173.58 280.673 173.58 284.148C173.58 287.624 184.781 290.441 198.598 290.441Z" fill="#060F1D"/>
<path d="M198.598 301.095C212.416 301.095 223.618 298.277 223.618 294.802C223.618 291.326 212.416 288.509 198.598 288.509C184.781 288.509 173.58 291.326 173.58 294.802C173.58 298.277 184.781 301.095 198.598 301.095Z" fill="#060F1D"/>
<path d="M198.562 285.365C210.745 285.365 220.621 282.881 220.621 279.817C220.621 276.753 210.745 274.269 198.562 274.269C186.379 274.269 176.504 276.753 176.504 279.817C176.504 282.881 186.379 285.365 198.562 285.365Z" fill="#081426"/>
<path fill-rule="evenodd" clip-rule="evenodd" d="M111.296 21.4282L183.145 275.927L158.145 282.56L90.9863 40.5749L111.296 21.4282Z" fill="#0E3B82"/>
<path fill-rule="evenodd" clip-rule="evenodd" d="M111.053 20.5596L115.639 19.6909L253.63 258.288L183.388 276.796L168.438 280.762L99.3945 31.5545L111.053 20.5596Z" fill="#082149"/>
<path fill-rule="evenodd" clip-rule="evenodd" d="M111.053 20.5596L183.388 276.796L168.438 280.762L99.3945 31.5545L111.053 20.5596Z" fill="#0A2C60"/>
<path fill-rule="evenodd" clip-rule="evenodd" d="M130.041 260.949C130.041 260.949 159.915 133.784 160.358 161.261L164.397 299.528C165.379 317.22 178.158 319.045 190.84 313.288L264.027 286.454C268.483 284.469 272.236 282.038 272.218 274.853V244.28L276.084 245.157V272.955C276.432 284.857 271.445 288.158 263.74 291.533L178.158 321.03C174.727 321.538 171.234 320.292 167.212 318.666L130.041 260.949Z" fill="#071E41"/>
<path fill-rule="evenodd" clip-rule="evenodd" d="M111.295 21.4284L183.144 275.927L224.363 264.989L197.104 168.18L195.288 167.03L146.746 3.52051C128.356 5.50371 119.487 13.2593 111.295 21.4284Z" fill="#114AA4"/>
<path fill-rule="evenodd" clip-rule="evenodd" d="M146.746 3.5203C174.344 1.21915 209.135 0.143726 233.18 5.7059L277.465 153.439L279.567 155.373L303.048 239.901C300.902 244.617 252.074 260.337 224.363 264.989L197.103 168.18L146.746 3.5203Z" fill="#1761D6"/>
<path fill-rule="evenodd" clip-rule="evenodd" d="M195.289 167.03L193.1 159.663L275.364 147.113L277.466 153.439L279.568 155.373C250.059 159.062 221.949 163.451 197.105 168.18L195.289 167.03Z" fill="#1F6DE7"/>
<path fill-rule="evenodd" clip-rule="evenodd" d="M111.295 21.4284L157.483 185.041C165.336 177.87 179.418 170.556 191.875 167.704C193.03 167.44 194.168 167.214 195.288 167.03L146.746 3.52051C145.469 3.65863 144.235 3.82455 143.045 4.01566C127.131 6.58349 118.922 13.8274 111.295 21.4284Z" fill="#0E3B82"/>
<path fill-rule="evenodd" clip-rule="evenodd" d="M176.967 105.317L195.288 167.03L157.482 185.04L140.465 124.754L176.967 105.317Z" fill="#0F418F"/>
<path fill-rule="evenodd" clip-rule="evenodd" d="M146.746 3.5203C174.344 1.21915 209.135 0.143726 233.18 5.7059L277.465 153.439C242.666 156.983 215.963 161.605 195.288 167.03L146.746 3.5203Z" fill="#1350B1"/>
<path fill-rule="evenodd" clip-rule="evenodd" d="M176.969 105.317L263.385 154.982C235.709 158.792 215.052 162.654 195.289 167.03L176.969 105.317Z" fill="#1149A2"/>
<path fill-rule="evenodd" clip-rule="evenodd" d="M110.201 111.047L115.413 108.441L156.78 129.772L160.22 298.177C161.836 315.102 171.583 321.86 178.159 321.03C174.806 321.752 170.47 320.414 164.398 317.378L151.168 310.122L110.201 111.047Z" fill="#0A295B"/>
<path fill-rule="evenodd" clip-rule="evenodd" d="M110.201 111.047L115.413 108.441L156.78 129.772L151.777 132.38L110.201 111.047Z" fill="#0B3577"/>
<path fill-rule="evenodd" clip-rule="evenodd" d="M117.124 289.637L110.201 111.047L151.777 132.38L155.234 296.11C155.902 307.208 158.604 313.025 164.398 317.377C164.398 317.377 116.334 302.186 117.124 289.637Z" fill="#0D3678"/>
<path fill-rule="evenodd" clip-rule="evenodd" d="M110.201 111.047L113.068 177.401L151.777 132.38L110.201 111.047Z" fill="#0E3C85"/>
<path fill-rule="evenodd" clip-rule="evenodd" d="M110.201 111.047L153.288 197.715L151.777 132.38L110.201 111.047Z" fill="#104597"/>
<path d="M135.591 180.071C143.759 178.842 148.761 167.077 146.762 153.794C144.764 140.51 136.521 130.738 128.353 131.967C120.184 133.196 115.183 144.961 117.181 158.244C119.18 171.528 127.422 181.3 135.591 180.071Z" fill="#1F52A3"/>
<path fill-rule="evenodd" clip-rule="evenodd" d="M195.289 167.03L260.293 96.1523L277.466 153.439C249.642 156.668 222.322 161.443 195.289 167.03Z" fill="#104597"/>
<path fill-rule="evenodd" clip-rule="evenodd" d="M253.63 258.288L244.014 225.513L272.628 217.695L282.236 249.49C273.019 253.214 263.403 255.943 253.63 258.288Z" fill="#1F6DE7"/>
</g>
<defs>
<clipPath id="clip0">
<rect width="394" height="394" fill="white" transform="translate(0.447266 0.76123)"/>
</clipPath>
</defs>
</svg>
