<svg width="150" height="163" viewBox="0 0 150 163" fill="none" xmlns="http://www.w3.org/2000/svg">
<path fill-rule="evenodd" clip-rule="evenodd" d="M144.351 14.1934L149.431 149.255L33.5352 123.285L51.4624 0.599609L144.351 14.1934Z" fill="#204173"/>
<path fill-rule="evenodd" clip-rule="evenodd" d="M33.5352 123.303L149.431 149.272L134.13 162.426L33.5352 123.303Z" fill="#172E51"/>
<path fill-rule="evenodd" clip-rule="evenodd" d="M144.367 14.1934L134.146 162.408L18.25 136.438L51.4783 0.599609L144.367 14.1934Z" fill="#2B5DAA"/>
<path fill-rule="evenodd" clip-rule="evenodd" d="M82.1914 157.405C94.7797 159.933 100.888 162.635 108.069 162.33C134.682 120.535 134.79 66.9537 139.236 40.5L82.1914 157.405Z" fill="#061D3F"/>
<path fill-rule="evenodd" clip-rule="evenodd" d="M72.0039 155.292C84.5922 157.82 94.2842 160.302 101.465 159.997C138.975 106.736 134.792 66.9537 139.238 40.5L72.0039 155.292Z" fill="#092859"/>
<path fill-rule="evenodd" clip-rule="evenodd" d="M54.2617 152.119C67.7027 155.741 80.7227 156.648 93.3721 155.128C127.834 124.079 133.479 77.7731 140.545 32.2197L54.2617 152.119Z" fill="#0C3778"/>
<path fill-rule="evenodd" clip-rule="evenodd" d="M36.3438 148.225L134.111 62.7861C120.364 124.732 95.2127 166.428 36.3438 148.225Z" fill="#1149A2"/>
<path fill-rule="evenodd" clip-rule="evenodd" d="M72.3555 144.281L88.7825 134.342L77.9463 132.525L72.3555 144.281Z" fill="#0D2244"/>
<path fill-rule="evenodd" clip-rule="evenodd" d="M13.7926 142.398L13.332 143.415C41.0702 150.543 66.4519 153.969 79.5547 138.095C111.563 128.004 125.673 96.3649 135.125 59.12L144.381 14.2139L13.7926 142.398Z" fill="#1A5ECA"/>
<path fill-rule="evenodd" clip-rule="evenodd" d="M54.2617 142.252L93.3721 121.412L69.3144 118.121L54.2617 142.252Z" fill="#193A6F"/>
<path fill-rule="evenodd" clip-rule="evenodd" d="M7.70616 138.27L6.83203 140.594C34.3579 148.37 58.3074 148.505 72.306 127.36C121.67 123.566 130.607 65.6854 144.332 14.2139L7.70616 138.27Z" fill="#2F77E9"/>
<path fill-rule="evenodd" clip-rule="evenodd" d="M38.1016 138.08C57.2412 129.899 75.4959 120.24 93.4915 110.148L62.0009 103.189L38.1016 138.08Z" fill="#0C3370"/>
<path fill-rule="evenodd" clip-rule="evenodd" d="M0.332031 135.782C28.0486 146.393 49.829 139.647 64.7594 112.89C98.0308 118.922 118.847 97.0856 130.604 54.9748L144.387 14.1934L51.4985 0.599609L0.332031 135.782Z" fill="#5B94ED"/>
<path fill-rule="evenodd" clip-rule="evenodd" d="M0.332031 135.782C28.0486 146.393 49.829 139.647 64.7594 112.89C98.0308 118.922 118.847 97.0856 130.604 54.9748L144.387 14.1934L51.4985 0.599609L0.332031 135.782Z" fill="#5B94ED"/>
<path fill-rule="evenodd" clip-rule="evenodd" d="M63.3666 115.033C56.5886 108.78 53.5954 99.15 56.3153 89.0021C60.6145 72.955 77.5739 61.6892 94.1988 63.8392C107.366 65.5427 116.375 75.1564 117.411 87.0575C105.157 107.62 87.9495 117.096 64.6149 112.866C64.2048 113.604 63.7875 114.328 63.3666 115.033Z" fill="#1C307A"/>
<path fill-rule="evenodd" clip-rule="evenodd" d="M72.3342 68.5278C72.863 68.2162 73.3989 67.9176 73.9458 67.632C79.8711 64.5372 86.4585 63.1582 92.7869 63.6864C93.0315 63.7069 93.2761 63.7303 93.5243 63.7565L93.5278 63.7569L93.661 63.7716L93.7186 63.7781L93.8195 63.7896L93.9814 63.8091L94.0352 63.8159L94.1613 63.8321L94.2259 63.84L94.3015 63.8504L94.3805 63.8605L94.4417 63.8691L94.5355 63.8825L94.5713 63.8875C100.198 64.6862 105.289 66.9995 109.257 70.5792C113.643 74.5341 116.435 79.8381 117.248 85.752C117.309 86.1884 117.359 86.6266 117.395 87.0673L117.258 87.2947C117.211 87.3745 117.165 87.4541 117.114 87.5339L116.978 87.7649L116.967 87.7775L116.827 88.0099C116.776 88.0887 116.73 88.1675 116.679 88.2463L116.535 88.4787V88.4826L116.391 88.7071L116.377 88.7345L116.24 88.9493C116.193 89.0266 116.143 89.1043 116.093 89.1817L115.96 89.3885L115.927 89.44L115.798 89.6432C115.747 89.7195 115.697 89.7961 115.647 89.8724L115.524 90.0631L115.485 90.1239L115.355 90.3196L115.327 90.3624L115.2 90.5538L115.078 90.733L115.038 90.7931L114.916 90.9769L114.862 91.0535L114.744 91.2262L114.61 91.4216L114.593 91.4507L114.47 91.6252L114.409 91.7151L114.29 91.8864L114.258 91.9324L114.135 92.108L114.024 92.2634L113.956 92.3616L113.84 92.5214L113.769 92.6225L113.671 92.7588L113.578 92.8891L113.499 92.9966L113.391 93.147L113.308 93.2585L113.204 93.3999L113.146 93.4794L113.042 93.6212L112.934 93.7622L112.847 93.8802L112.743 94.0187L112.621 94.1803L112.574 94.2404L112.481 94.3645L112.383 94.4915L112.283 94.6224L112.175 94.7602L112.099 94.8595L112.031 94.9459L111.916 95.0926L111.819 95.216L111.711 95.3509L111.617 95.4661L111.445 95.6844L111.351 95.7981L111.239 95.9359L111.149 96.0485L110.973 96.2604L110.966 96.268L110.887 96.3651L110.764 96.513L110.674 96.6213L110.541 96.7803L110.477 96.8559L110.437 96.9012L110.286 97.0814L110.2 97.1829L110.192 97.1901L94.6866 69.715L99.2518 83.57L84.8541 87.8498L88.0596 100.894L74.5286 112.842L75.0395 113.851L74.874 113.851L74.8129 113.851L74.64 113.849L74.5789 113.849L74.3558 113.846L74.3199 113.845L74.1256 113.842L74.061 113.84L73.8667 113.836L73.8344 113.835L73.6074 113.829L73.5463 113.828L73.3703 113.822L73.3091 113.82L73.086 113.812L73.0463 113.81L72.8521 113.802L72.7874 113.799L72.5857 113.79L72.5569 113.789L72.3303 113.778L72.2692 113.774L72.0893 113.764L72.0282 113.761L71.8016 113.747L71.7583 113.744L71.5676 113.732L71.4994 113.728L71.2942 113.713L71.2654 113.712L71.0353 113.695L70.9742 113.69L70.7908 113.676L70.7331 113.671L70.5027 113.652L70.4595 113.648L70.2655 113.631L70.2005 113.625L69.9848 113.606L69.963 113.604L69.7294 113.581L69.6682 113.575L69.481 113.556L69.4234 113.55L69.1897 113.526L69.143 113.521L68.9522 113.5L68.8837 113.492L68.6645 113.467L68.6466 113.465L68.4091 113.437L68.3441 113.429L68.1571 113.406L68.0995 113.399L67.8655 113.369L67.8153 113.362L67.621 113.337L67.5564 113.328L67.3297 113.297L67.3153 113.295L67.0778 113.262L67.0093 113.252L66.8189 113.225L66.7648 113.216L66.5273 113.181L66.4735 113.173L66.2793 113.143L66.2107 113.132L65.9768 113.095L65.9697 113.094L65.7287 113.055L65.6602 113.044L65.4698 113.012L65.4122 113.003L65.1711 112.962L65.117 112.952L64.9227 112.918L64.8546 112.906L64.6097 112.862L64.4442 113.158L64.3905 113.254L64.2787 113.453L64.2141 113.566L64.1098 113.746L64.0412 113.865L63.9443 114.039L63.8722 114.159L63.7714 114.33L63.7033 114.451L63.6059 114.619L63.5304 114.741L63.4405 114.898L63.3614 115.027C63.1024 114.789 62.8504 114.545 62.6022 114.297C62.0229 113.716 61.4727 113.11 60.9583 112.481L60.9077 112.416L60.8609 112.359L60.8539 112.35L60.7387 112.208L60.7278 112.192C59.8895 111.139 59.1449 110.022 58.4901 108.849L58.4578 108.794L58.4111 108.705C56.7489 105.668 55.7236 102.279 55.4142 98.7029C55.1767 95.9367 55.3744 93.1218 55.9788 90.3444L56.0115 90.2128L56.022 90.1581C56.1083 89.7731 56.2058 89.386 56.3101 88.9985C56.4072 88.6262 56.5151 88.2563 56.6266 87.8908L56.6337 87.8717L56.666 87.7624C57.3999 85.4286 58.4254 83.1412 59.7314 80.952C62.0375 77.083 65.1421 73.6548 68.8082 70.8842L68.83 70.8666L68.9269 70.7943L69.0169 70.7277L69.0566 70.6979C70.0315 69.9758 71.0389 69.3013 72.0823 68.6771L72.1216 68.6519L72.2189 68.595L72.2945 68.5494L72.3342 68.5278Z" fill="#3A79D5"/>
<path d="M97.5353 83.15L96.385 68.6188L77.3186 94.7963L97.5353 83.15Z" fill="#FFCA61"/>
<path fill-rule="evenodd" clip-rule="evenodd" d="M87.25 89.1367L94.2152 102.856L77.2734 93.8252L87.25 89.1367Z" fill="#FE8E29"/>
<path d="M93.4822 102.285L74.5466 113.683L85.5588 97.1711L93.4822 102.285Z" fill="#FFCA61"/>
<path fill-rule="evenodd" clip-rule="evenodd" d="M132.126 50.2192L38.4531 34.8271L51.4079 0.599609L144.3 14.1933L132.126 50.2192Z" fill="#9FC3FA"/>
</svg>
