<svg width="662" height="441" viewBox="0 0 662 441" fill="none" xmlns="http://www.w3.org/2000/svg">
<path fill-rule="evenodd" clip-rule="evenodd" d="M268.77 296.94L338.647 293.637L337.176 284.821L283.481 280.232L268.77 296.94Z" fill="#2D6CDC"/>
<path fill-rule="evenodd" clip-rule="evenodd" d="M464.871 208.74L534.013 220.5H611.982L625.222 226.012L623.751 232.26L636.991 241.08L639.933 274.89L617.867 294H526.658L457.516 285.18L469.285 253.575L464.725 232.927L464.871 208.74Z" fill="#6E9EF4"/>
<path fill-rule="evenodd" clip-rule="evenodd" d="M459.428 208.74H464.87L464.723 232.927L459.428 208.74Z" fill="#548CF2"/>
<path fill-rule="evenodd" clip-rule="evenodd" d="M74.5838 119.718L67.6707 114.66L64.7285 60.2699L79.8821 50.7781L105.92 70.5599L73.5552 73.4999L74.5838 119.718Z" fill="#325DA9"/>
<path fill-rule="evenodd" clip-rule="evenodd" d="M75.0258 142.59L73.5547 73.4998L105.919 70.5598L125.486 85.373L100.477 122.48L75.0258 142.59Z" fill="#558AE8"/>
<path fill-rule="evenodd" clip-rule="evenodd" d="M83.8521 147L75.0254 142.59L100.477 122.48L83.8521 147Z" fill="#325DA9"/>
<path fill-rule="evenodd" clip-rule="evenodd" d="M120.631 186.69L139.755 199.92L157.851 202.757V183.789L151.524 183.75L132.107 154.667L120.631 186.69Z" fill="#325DA9"/>
<path fill-rule="evenodd" clip-rule="evenodd" d="M137.696 83.0549L126.516 83.7899L83.8535 147C83.8535 147 89.8839 163.84 93.7088 174.734C95.6213 180.282 100.625 184.241 106.363 184.954C112.983 185.761 120.631 186.69 120.631 186.69L132.107 154.667C138.139 130.668 148.141 106.543 137.696 83.0549Z" fill="#254782"/>
<path fill-rule="evenodd" clip-rule="evenodd" d="M188.302 99.96L197.275 107.314L194.186 108.78V113.19L183.889 105.84L188.302 99.96Z" fill="#2553A4"/>
<path fill-rule="evenodd" clip-rule="evenodd" d="M188.301 99.9598L183.888 105.84L172.412 99.7305L189.772 60.2698L188.301 99.9598Z" fill="#254782"/>
<path fill-rule="evenodd" clip-rule="evenodd" d="M225.08 102.9V110.25L200.071 144.06L198.6 127.89L201.542 122.01L225.08 102.9Z" fill="#325DA9"/>
<path fill-rule="evenodd" clip-rule="evenodd" d="M175.062 233.583L152.995 239.61L131.371 257.801L157.851 245.021L175.062 233.583Z" fill="#306AD4"/>
<path fill-rule="evenodd" clip-rule="evenodd" d="M146.521 265.145L204.484 269.01L215.224 259.687L179.032 230.996L157.851 245.021L175.062 236.67L146.521 265.145Z" fill="#3D76DE"/>
<path fill-rule="evenodd" clip-rule="evenodd" d="M225.08 267.54L139.756 199.92L157.852 202.757V183.79L223.609 124.95L272.156 185.22L225.08 267.54Z" fill="#4683F1"/>
<path fill-rule="evenodd" clip-rule="evenodd" d="M154.467 318.99L186.831 288.173L230.082 270.48L238.32 276.36L244.498 276.888L195.658 291.06L154.467 318.99Z" fill="#3876E5"/>
<path fill-rule="evenodd" clip-rule="evenodd" d="M195.658 291.06L158.438 342.601L154.467 318.99L195.658 291.06Z" fill="#568EF2"/>
<path fill-rule="evenodd" clip-rule="evenodd" d="M283.482 280.232L244.204 324.665L176.533 317.52L195.658 291.06L244.497 276.887L283.482 280.232Z" fill="#4B87F2"/>
<path fill-rule="evenodd" clip-rule="evenodd" d="M349.831 288.173L267.742 340.99L259.65 361.16L399.699 334.235L349.831 288.173Z" fill="#4180F1"/>
<path fill-rule="evenodd" clip-rule="evenodd" d="M114.746 296.94L175.062 236.67L129.457 258.72L114.746 296.94Z" fill="#4180F1"/>
<path fill-rule="evenodd" clip-rule="evenodd" d="M194.186 108.78V120.54L201.541 122.01L225.079 102.9V94.0798L194.186 108.78Z" fill="#3E6CBF"/>
<path fill-rule="evenodd" clip-rule="evenodd" d="M576.676 220.5C600.066 237.312 621.545 255.263 639.934 274.89L636.991 241.08L623.751 232.26L625.222 226.013L611.982 220.5H576.676Z" fill="#3B67B4"/>
<path fill-rule="evenodd" clip-rule="evenodd" d="M534.012 220.5C536.66 245 536.66 269.5 532.541 294H617.865C594.622 264.806 566.229 240.688 534.012 220.5Z" fill="#4166A9"/>
<path fill-rule="evenodd" clip-rule="evenodd" d="M464.871 208.74C489.733 235.901 511.358 264.024 526.658 294L457.516 285.18L469.285 253.575L464.725 232.927L464.871 208.74Z" fill="#3A5C98"/>
<path fill-rule="evenodd" clip-rule="evenodd" d="M194.186 113.19L183.889 105.84L136.813 80.8499C140.491 88.7188 138.873 94.9045 133.871 99.9599L127.986 148.47L151.524 183.75L157.851 183.79L222.726 125.8L214.193 124.95L200.071 144.06L198.6 127.89L201.542 122.01L194.186 120.54V113.19Z" fill="#558AE8"/>
<path fill-rule="evenodd" clip-rule="evenodd" d="M223.609 124.95C236.408 140.288 233.024 237.108 225.08 267.54L238.32 276.36L341.298 285.18L388.374 139.65L356.009 114.66L223.609 124.95Z" fill="#6195F3"/>
<path fill-rule="evenodd" clip-rule="evenodd" d="M356.008 114.66C375.721 118.869 452.071 179.017 454.572 186.69L469.283 253.575L457.514 285.18L403.083 337.365L335.412 274.89C349.682 235.532 369.836 202.656 367.777 145.53C378.221 135.24 369.836 123.48 356.008 114.66Z" fill="#76A4F5"/>
<path fill-rule="evenodd" clip-rule="evenodd" d="M335.412 274.89L338.943 295.205L349.83 288.173L335.412 274.89Z" fill="#4E89F2"/>
</svg>
