<svg width="383" height="340" viewBox="0 0 383 340" fill="none" xmlns="http://www.w3.org/2000/svg">
<g clip-path="url(#clip0)">
<path fill-rule="evenodd" clip-rule="evenodd" d="M240.772 286.253L267.843 325.713L289.358 346.835L294.734 206.366L240.772 286.253Z" fill="#072047"/>
<path fill-rule="evenodd" clip-rule="evenodd" d="M280.257 213.615L303.719 198.098L274.817 267.228L280.257 213.615Z" fill="#0D397D"/>
<path fill-rule="evenodd" clip-rule="evenodd" d="M235.486 670.692L176.187 671.812L201.919 305.478L222.493 345.654L235.486 670.692Z" fill="#172F53"/>
<path fill-rule="evenodd" clip-rule="evenodd" d="M246.643 26.5302L263.415 45.5738L251.094 47.8169L235.958 26.5349L246.643 26.5302Z" fill="#F2AD00"/>
<path fill-rule="evenodd" clip-rule="evenodd" d="M251.107 47.8167L263.426 45.5738L253.4 63.8886L245.965 65.184L251.107 47.8167Z" fill="#D89A00"/>
<path fill-rule="evenodd" clip-rule="evenodd" d="M294.182 341.744L302.639 354.77L270.179 340.207L267.845 325.713L294.182 341.744Z" fill="#739BDB"/>
<path fill-rule="evenodd" clip-rule="evenodd" d="M267.842 325.713L222.492 345.654L218.702 359.237L270.176 340.207L267.842 325.713Z" fill="#8AACE1"/>
<path fill-rule="evenodd" clip-rule="evenodd" d="M257.866 267.389L267.844 325.713L222.493 345.654L166.494 236.825L217.737 207.994L257.866 267.389Z" fill="#0A2D63"/>
<path fill-rule="evenodd" clip-rule="evenodd" d="M242.266 146.539L199.545 150.814L157.34 183.457L242.266 269.446L274.816 267.227L289.203 160.962L242.266 146.539Z" fill="#10479C"/>
<path fill-rule="evenodd" clip-rule="evenodd" d="M242.27 269.446L210.042 236.824L180.006 241.773L242.27 269.446Z" fill="#0D397D"/>
<path fill-rule="evenodd" clip-rule="evenodd" d="M157.34 183.458L210.039 236.825L149.954 246.723L157.34 183.458Z" fill="#1457C1"/>
<path fill-rule="evenodd" clip-rule="evenodd" d="M157.342 183.458L138.585 344.208L120.228 233.826L157.342 183.458Z" fill="#4385EB"/>
<path fill-rule="evenodd" clip-rule="evenodd" d="M120.229 233.825L95.0011 338.04L138.586 344.207L120.229 233.825Z" fill="#1F6EE7"/>
<path fill-rule="evenodd" clip-rule="evenodd" d="M67.6333 433.387L95.0011 338.04L138.586 344.207L67.6333 433.387Z" fill="#155CC9"/>
<path fill-rule="evenodd" clip-rule="evenodd" d="M157.34 183.458L199.545 150.814L182.529 155.253L157.34 183.458Z" fill="#0E3C85"/>
<path fill-rule="evenodd" clip-rule="evenodd" d="M223.062 104.997L204.009 106.287L199.548 150.814L242.27 146.539L223.062 104.997Z" fill="#0B326E"/>
<path fill-rule="evenodd" clip-rule="evenodd" d="M195.15 106.309L204.006 106.287L199.546 150.814L182.53 155.253L195.15 106.309Z" fill="#0E3C85"/>
<path fill-rule="evenodd" clip-rule="evenodd" d="M209.733 0.762398L233.727 14.9438L231.065 24.5195L196.297 27.5914L177.278 19.8086L178.391 1.89056L209.733 0.762398Z" fill="#5597FF"/>
<path fill-rule="evenodd" clip-rule="evenodd" d="M231.066 24.5356L233.731 14.9554L253.371 46.694L258.638 93.4845L253.356 88.1494L231.066 24.5356Z" fill="#1C6BE7"/>
<path fill-rule="evenodd" clip-rule="evenodd" d="M178.393 1.88037L148.175 24.3024L141.448 39.9902L177.274 19.8023L178.393 1.88037Z" fill="#277BFF"/>
<path fill-rule="evenodd" clip-rule="evenodd" d="M196.306 27.6014L194.057 91.5039L253.381 88.1307L231.078 24.5292L196.306 27.6014Z" fill="#1761D6"/>
<path fill-rule="evenodd" clip-rule="evenodd" d="M253.376 88.1377L194.063 91.5106L163.846 106.075L194.056 110.549L234.465 106L258.657 93.471L253.376 88.1377Z" fill="#134FAE"/>
<path fill-rule="evenodd" clip-rule="evenodd" d="M196.313 27.5927L194.064 91.4939L163.842 106.062L138.107 84.7833L151.54 67.9799L141.463 39.9814L177.293 19.8091L196.313 27.5927Z" fill="#1C6BE7"/>
<path fill-rule="evenodd" clip-rule="evenodd" d="M141.467 39.9758L151.535 67.9795L141.456 67.9864L131.441 39.9797L141.467 39.9758Z" fill="#F2AD00"/>
<path fill-rule="evenodd" clip-rule="evenodd" d="M141.469 67.9841L151.545 67.9768L138.109 84.7874L131.424 84.7948L141.469 67.9841Z" fill="#D89A00"/>
<path fill-rule="evenodd" clip-rule="evenodd" d="M131.444 39.972L131.412 84.7921L141.459 67.9789L131.444 39.972Z" fill="#FFBE1B"/>
<path fill-rule="evenodd" clip-rule="evenodd" d="M289.207 160.962L313.828 207.993L280.26 213.615L289.207 160.962Z" fill="#1457C1"/>
<path fill-rule="evenodd" clip-rule="evenodd" d="M289.204 160.961L393.273 100.424L313.825 207.993L289.204 160.961Z" fill="#4385EB"/>
<path fill-rule="evenodd" clip-rule="evenodd" d="M393.273 100.424L365.3 90.3838L274.172 156.292L289.204 160.961L393.273 100.424Z" fill="#1F6EE7"/>
<path fill-rule="evenodd" clip-rule="evenodd" d="M393.273 100.424L389.922 71.3741L285.852 10.843L393.273 100.424Z" fill="#155CC9"/>
<path fill-rule="evenodd" clip-rule="evenodd" d="M393.273 100.424L365.3 90.3837L257.865 3.06494L285.852 10.8428L393.273 100.424Z" fill="#11479C"/>
</g>
<defs>
<clipPath id="clip0">
<rect width="470" height="773" fill="white" transform="matrix(-1 0 0 1 470.447 0.76123)"/>
</clipPath>
</defs>
</svg>
