<svg width="114" height="260" viewBox="0 0 114 260" fill="none" xmlns="http://www.w3.org/2000/svg">
<path fill-rule="evenodd" clip-rule="evenodd" d="M54.9492 96.0255L45.8486 109.298L38.6159 116.402L36.8086 69.1553L54.9492 96.0255Z" fill="#072047"/>
<path fill-rule="evenodd" clip-rule="evenodd" d="M41.6761 71.5934L33.7891 66.374L43.505 89.626L41.6761 71.5934Z" fill="#0D397D"/>
<path fill-rule="evenodd" clip-rule="evenodd" d="M56.7266 225.332L76.6611 225.708L68.0111 102.491L61.0947 116.004L56.7266 225.332Z" fill="#172F53"/>
<path fill-rule="evenodd" clip-rule="evenodd" d="M52.9739 8.66723L47.336 15.0718L51.4784 15.827L56.566 8.66939L52.9739 8.66723Z" fill="#F2AD00"/>
<path fill-rule="evenodd" clip-rule="evenodd" d="M51.4733 15.8277L47.3319 15.0727L50.7033 21.2331L53.2028 21.6692L51.4733 15.8277Z" fill="#D89A00"/>
<path fill-rule="evenodd" clip-rule="evenodd" d="M41.675 203.835L42.4292 251.709L26.6289 254.346V211.013L41.675 203.835Z" fill="#092654"/>
<path fill-rule="evenodd" clip-rule="evenodd" d="M26.6301 211.014V254.347L5.94141 255.854L26.6301 211.014Z" fill="#061834"/>
<path fill-rule="evenodd" clip-rule="evenodd" d="M26.6279 211.014L0.296875 243.794L5.93923 255.854L26.6279 211.014Z" fill="#05142C"/>
<path fill-rule="evenodd" clip-rule="evenodd" d="M5.56237 237.407L0.296875 243.793L5.93923 255.854L5.56237 237.407Z" fill="#040A13"/>
<path fill-rule="evenodd" clip-rule="evenodd" d="M41.6719 203.835L42.426 251.709L69.511 259.998L71.7688 214.781L41.6719 203.835Z" fill="#0C3473"/>
<path fill-rule="evenodd" clip-rule="evenodd" d="M71.7695 214.781L69.5117 259.998H81.9275L86.0662 244.552L71.7695 214.781Z" fill="#0A2D63"/>
<path fill-rule="evenodd" clip-rule="evenodd" d="M95.8493 252.839L81.9297 259.998L86.0684 244.552L95.8493 252.839Z" fill="#061A39"/>
<path fill-rule="evenodd" clip-rule="evenodd" d="M71.7695 214.781L96.5968 249.824L95.8471 252.839L86.0662 244.552L71.7695 214.781Z" fill="#082149"/>
<path fill-rule="evenodd" clip-rule="evenodd" d="M66.5035 159.391L71.7688 214.782L41.6719 203.836L66.5035 159.391Z" fill="#114699"/>
<path fill-rule="evenodd" clip-rule="evenodd" d="M34.1521 119.071L45.0641 114.173L41.6751 203.835L30.3906 159.013L34.1521 119.071Z" fill="#0F418F"/>
<path fill-rule="evenodd" clip-rule="evenodd" d="M30.3905 159.013L26.6289 211.013L41.6751 203.835L30.3905 159.013Z" fill="#0B316B"/>
<path fill-rule="evenodd" clip-rule="evenodd" d="M41.6719 203.835L45.0609 114.173L62.3648 120.573L66.5035 159.39L41.6719 203.835Z" fill="#124CA7"/>
<path fill-rule="evenodd" clip-rule="evenodd" d="M36.9952 114.69L34.1523 119.072L45.0644 114.173L45.8488 109.298L36.9952 114.69Z" fill="#739BDB"/>
<path fill-rule="evenodd" clip-rule="evenodd" d="M45.8469 109.298L61.0924 116.005L62.3664 120.574L45.0625 114.173L45.8469 109.298Z" fill="#8AACE1"/>
<path fill-rule="evenodd" clip-rule="evenodd" d="M49.2018 89.6799L45.8477 109.297L61.0931 116.004L79.9183 79.3995L62.6922 69.7021L49.2018 89.6799Z" fill="#0A2D63"/>
<path fill-rule="evenodd" clip-rule="evenodd" d="M54.4467 49.0322L68.8083 50.4702L82.9964 61.4497L54.4467 90.3723L43.5043 89.626L38.668 53.8833L54.4467 49.0322Z" fill="#10479C"/>
<path fill-rule="evenodd" clip-rule="evenodd" d="M54.4453 90.3719L65.2793 79.3994L75.3765 81.0641L54.4453 90.3719Z" fill="#0D397D"/>
<path fill-rule="evenodd" clip-rule="evenodd" d="M82.993 61.4502L65.2773 79.4003L85.4762 82.7296L82.993 61.4502Z" fill="#1457C1"/>
<path fill-rule="evenodd" clip-rule="evenodd" d="M82.9961 61.4502L89.3016 115.519L95.4725 78.3915L82.9961 61.4502Z" fill="#4385EB"/>
<path fill-rule="evenodd" clip-rule="evenodd" d="M95.4717 78.3916L103.953 113.444L89.3008 115.519L95.4717 78.3916Z" fill="#1F6EE7"/>
<path fill-rule="evenodd" clip-rule="evenodd" d="M113.153 145.514L103.953 113.443L89.3008 115.518L113.153 145.514Z" fill="#155CC9"/>
<path fill-rule="evenodd" clip-rule="evenodd" d="M113.153 145.514L107.337 149.095L89.3008 115.519L113.153 145.514Z" fill="#11479C"/>
<path fill-rule="evenodd" clip-rule="evenodd" d="M82.9967 61.4503L68.8086 50.4707L74.5288 51.9638L82.9967 61.4503Z" fill="#0E3C85"/>
<path fill-rule="evenodd" clip-rule="evenodd" d="M60.9023 35.0596L67.3075 35.4936L68.8069 50.4703L54.4453 49.0324L60.9023 35.0596Z" fill="#0B326E"/>
<path fill-rule="evenodd" clip-rule="evenodd" d="M70.2856 35.5007L67.3086 35.4932L68.808 50.4699L74.5282 51.963L70.2856 35.5007Z" fill="#0E3C85"/>
<path fill-rule="evenodd" clip-rule="evenodd" d="M65.3821 0.000559119L57.3166 4.76876L58.2121 7.98948L69.9003 9.02458L76.2934 6.40809L75.9185 0.381756L65.3821 0.000559119Z" fill="#5597FF"/>
<path fill-rule="evenodd" clip-rule="evenodd" d="M58.2122 7.9964L57.3154 4.77384L50.7132 15.4485L48.9446 31.1867L50.7202 29.3925L58.2122 7.9964Z" fill="#1C6BE7"/>
<path fill-rule="evenodd" clip-rule="evenodd" d="M75.918 0.375977L86.0776 7.91867L88.3396 13.1952L76.2949 6.40357L75.918 0.375977Z" fill="#277BFF"/>
<path fill-rule="evenodd" clip-rule="evenodd" d="M69.8973 9.02911L70.6571 30.5225L50.7127 29.3846L58.2074 7.99383L69.8973 9.02911Z" fill="#1761D6"/>
<path fill-rule="evenodd" clip-rule="evenodd" d="M50.7124 29.3877L70.6514 30.5251L80.8101 35.4246L70.6549 36.9275L57.0705 35.3958L48.9374 31.181L50.7124 29.3877Z" fill="#134FAE"/>
<path fill-rule="evenodd" clip-rule="evenodd" d="M69.891 9.02354L70.6507 30.5163L80.8119 35.4179L89.4623 28.2624L84.9452 22.61L88.3315 13.1935L76.2849 6.40668L69.891 9.02354Z" fill="#1C6BE7"/>
<path fill-rule="evenodd" clip-rule="evenodd" d="M88.3328 13.1898L84.9492 22.6084L88.3378 22.6113L91.7036 13.1916L88.3328 13.1898Z" fill="#F2AD00"/>
<path fill-rule="evenodd" clip-rule="evenodd" d="M88.3306 22.6104L84.9434 22.6074L89.461 28.2619L91.7082 28.2648L88.3306 22.6104Z" fill="#D89A00"/>
<path fill-rule="evenodd" clip-rule="evenodd" d="M91.6999 13.1885L91.7128 28.2641L88.3339 22.6083L91.6999 13.1885Z" fill="#FFBE1B"/>
<path fill-rule="evenodd" clip-rule="evenodd" d="M38.6676 53.8828L30.3906 69.702L41.6751 71.5929L38.6676 53.8828Z" fill="#1457C1"/>
<path fill-rule="evenodd" clip-rule="evenodd" d="M38.6688 53.8834L3.68359 33.5215L30.3917 69.7026L38.6688 53.8834Z" fill="#4385EB"/>
<path fill-rule="evenodd" clip-rule="evenodd" d="M3.68359 33.5215L13.0876 30.1445L43.7218 52.3127L38.6688 53.8835L3.68359 33.5215Z" fill="#1F6EE7"/>
<path fill-rule="evenodd" clip-rule="evenodd" d="M3.68359 33.5214L4.81037 23.7504L39.7955 3.39062L3.68359 33.5214Z" fill="#155CC9"/>
<path fill-rule="evenodd" clip-rule="evenodd" d="M3.68359 33.5212L13.0876 30.1443L49.2038 0.774414L39.7955 3.39051L3.68359 33.5212Z" fill="#11479C"/>
</svg>
