<svg width="382" height="354" viewBox="0 0 382 354" fill="none" xmlns="http://www.w3.org/2000/svg">
<path fill-rule="evenodd" clip-rule="evenodd" d="M378.72 256.914C379.973 206.315 383.628 179.699 378.72 149.407C376.325 134.69 371.027 129.233 365.143 120.428L352.797 143.205L378.72 256.914Z" fill="#1149A2"/>
<path fill-rule="evenodd" clip-rule="evenodd" d="M364.055 133.916C368.236 139.873 372.611 146.861 374.322 151.277C378.983 182.104 377.542 210.494 375.973 238.83L350.193 140.27C358.622 140.684 365.586 144.209 371.553 149.863C368.123 145.065 365.331 138.714 364.055 133.916Z" fill="#155AC6"/>
<path fill-rule="evenodd" clip-rule="evenodd" d="M371.024 178.16C346.325 170.8 299.388 157.048 283.657 154.36C251.378 148.843 239.205 120.974 210.295 114.412C266.583 107.075 310.608 139.89 357.973 156.113C364.818 161.344 371.227 167.277 371.024 178.16Z" fill="#1F4785"/>
<path fill-rule="evenodd" clip-rule="evenodd" d="M370.861 174.111C346.161 166.751 299.495 152.004 283.764 149.316C251.485 143.799 235.476 119.884 206.574 113.322C262.862 105.984 310.715 134.846 358.08 151.069C364.954 157.526 371.018 164.366 370.861 174.111Z" fill="#25549F"/>
<path fill-rule="evenodd" clip-rule="evenodd" d="M370.603 170.486C345.904 163.126 299.237 148.302 283.507 145.614C251.227 140.097 233.996 119.652 205.086 113.091C261.382 105.754 305.392 130.82 352.756 147.044C360.329 152.939 368.284 158.38 370.603 170.486Z" fill="#2A60B4"/>
<path fill-rule="evenodd" clip-rule="evenodd" d="M369.495 166.417L281.693 140.785L280.244 124.148L350.942 142.215C360.481 147.88 366.485 156.075 369.495 166.417Z" fill="#3672D0"/>
<path fill-rule="evenodd" clip-rule="evenodd" d="M310.027 144.233L275.707 139.965L267.594 126.66L340.386 133.193L339.71 140.913L310.027 144.233Z" fill="#4F86DD"/>
<path fill-rule="evenodd" clip-rule="evenodd" d="M290.289 45.3554L314.485 72.8892L311.341 41.9144C303.28 35.9461 296.151 36.3337 290.289 45.3554Z" fill="#1457C1"/>
<path fill-rule="evenodd" clip-rule="evenodd" d="M357.455 133.207C359.339 128.786 358.739 124.054 356.487 119.117C342.595 100.525 318.256 83.1788 310.496 38.0336C298.54 28.5206 288.258 18.2886 279.912 7.22559C273.893 8.85592 268.58 11.0204 264.617 14.2015C270.539 24.3388 279.095 34.7414 290.172 45.3964C295.028 44.0035 299.193 45.4482 302.871 48.9223C310.481 56.107 312.897 72.7484 321.138 89.3838C328.756 109.376 342.085 122.521 357.455 133.207Z" fill="#1660D3"/>
<path fill-rule="evenodd" clip-rule="evenodd" d="M360.432 130.23C362.316 125.809 361.715 121.078 359.464 116.141C345.572 97.5483 321.233 80.2022 313.472 35.057C301.517 25.544 291.235 15.312 282.889 4.24902C276.87 5.87936 271.556 8.04387 267.594 11.2249C273.515 21.3622 282.071 31.7648 293.149 42.4198C298.004 41.0269 302.17 42.4717 305.847 45.9457C313.457 53.1304 315.874 69.7718 324.115 86.4072C331.732 106.399 345.061 119.544 360.432 130.23Z" fill="#2470E8"/>
<path fill-rule="evenodd" clip-rule="evenodd" d="M363.037 126.695C364.921 122.275 364.321 117.543 362.069 112.606C348.177 94.0137 323.838 76.6675 316.078 31.5224C304.122 22.0094 293.84 11.7773 285.495 0.714355C279.475 2.34469 274.162 4.5092 270.199 7.69023C276.121 17.8276 284.677 28.2301 295.754 38.8852C300.61 37.4922 304.775 38.937 308.453 42.411C316.063 49.5958 318.479 66.2372 326.72 82.8726C334.338 102.865 347.667 116.01 363.037 126.695Z" fill="#397EEA"/>
<path fill-rule="evenodd" clip-rule="evenodd" d="M355.652 130.269L326.84 99.0484C313.204 94.1484 277.254 88.9005 257.253 89.9749C246.934 90.5301 240.727 95.9921 235.046 96.778C220.426 98.7982 205.558 94.3257 190.811 87.1274C190.691 89.9644 191.103 92.621 192.439 94.9726C190.443 99.2715 187.959 103.329 184.994 107.143C197.543 114.05 217.161 113.25 228.321 118.007C255.122 129.433 324.184 149.212 355.652 130.269Z" fill="#3179E9"/>
<path fill-rule="evenodd" clip-rule="evenodd" d="M184.994 107.14C194.511 108.929 203.269 106.158 211.652 101.173C203.224 104.071 194.556 106.503 184.994 107.14Z" fill="#1660D3"/>
<path fill-rule="evenodd" clip-rule="evenodd" d="M192.157 94.8621C190.881 92.5376 190.476 89.92 190.596 87.1274C205.344 94.3257 220.211 98.7982 234.831 96.778C240.513 95.9921 246.719 90.5301 257.039 89.9749C258.51 89.896 260.071 89.8509 261.7 89.8382C258.337 107.793 237.563 111.464 192.225 94.9726L192.157 94.8621Z" fill="#4B8AEC"/>
<path fill-rule="evenodd" clip-rule="evenodd" d="M326.752 98.9999V82.8491C336.989 97.7242 348.599 112.403 363.069 126.672L355.564 130.22L326.752 98.9999Z" fill="#1867E3"/>
<path fill-rule="evenodd" clip-rule="evenodd" d="M17.9355 192.528C24.9753 195.397 27.0916 201.72 25.1253 210.905C23.3766 219.042 20.5849 229.573 21.5305 237.155C22.3186 243.487 28.3826 244.722 30.1313 248.331C36.1654 260.78 49.1191 277.933 64.9023 283.054C81.6162 288.474 98.953 296.448 118.939 277.459C134.009 282.567 150.19 284.975 167.122 289.549C185.532 294.519 204.827 301.614 224.566 306.201C237.452 329.732 255.119 344.993 276.741 351.634C291.279 356.098 308.435 352.346 322.44 335.393C332.587 339.162 347.687 325.787 361.219 313.112C371.171 303.796 381.783 295.736 381.295 290.687L381.01 286.375L84.3632 215.505L29.2982 180.238L17.9355 192.528Z" fill="#1868E5"/>
<path fill-rule="evenodd" clip-rule="evenodd" d="M17.9355 189.738C24.9753 192.606 29.2532 199.385 27.2869 208.57C25.5382 216.706 22.7388 227.238 23.6919 234.82C24.4799 241.152 28.3826 241.931 30.1313 245.54C36.1654 257.989 49.1191 275.142 64.9023 280.263C81.6162 285.684 98.953 293.657 118.939 274.669C134.009 279.776 150.19 282.184 167.122 286.758C185.532 291.728 204.827 298.823 224.566 303.41C237.452 326.942 255.119 342.203 276.741 348.844C291.279 353.307 308.435 349.555 322.44 332.603C332.587 336.371 347.687 322.997 361.219 310.321C371.171 301.006 381.783 292.946 381.295 287.896L381.01 283.585L84.3632 212.715L29.2982 177.448L17.9355 189.738Z" fill="#216EE8"/>
<path fill-rule="evenodd" clip-rule="evenodd" d="M17.9355 186.947C24.9753 189.816 31.7149 197.568 29.7411 206.753C27.9999 214.89 25.2004 225.421 26.1461 233.003C26.9416 239.335 28.3826 239.141 30.1313 242.749C36.1654 255.199 49.1191 272.352 64.9023 277.473C81.6162 282.893 98.953 290.867 118.939 271.878C134.009 276.986 150.19 279.394 167.122 283.968C185.532 288.937 204.827 296.033 224.566 300.619C237.452 324.151 255.119 339.412 276.741 346.053C291.279 350.517 307.775 345.836 321.772 328.884C331.926 332.652 347.687 320.206 361.219 307.531C371.171 298.215 381.783 290.155 381.295 285.106L381.01 280.794L84.3632 209.924L29.2982 174.657L17.9355 186.947Z" fill="#2E77E9"/>
<path fill-rule="evenodd" clip-rule="evenodd" d="M30.2129 193.54L36.4871 195.231L61.5617 217.779L52.9233 246.571C45.6584 247.827 38.6111 244.388 31.7515 236.712L30.2129 193.54Z" fill="#2153A0"/>
<path fill-rule="evenodd" clip-rule="evenodd" d="M62.2109 246.591C68.9655 267.091 86.0396 276.231 115.67 271.541L226.528 300.827C268.984 343.162 299.89 344.297 315.606 324.36C311.928 301.068 299.335 281.683 287.814 261.824L83.1578 208.795L62.2109 246.591Z" fill="#10469A"/>
<path fill-rule="evenodd" clip-rule="evenodd" d="M45.267 242.407L62.769 246.554C75.3475 259.461 94.9433 267.013 117.954 271.95C152.905 279.339 188.637 288.907 224.729 299.446C233.968 302.41 240.895 304.171 273.602 319.352C287.329 317.493 296.493 337.524 315.848 324.322C303.322 346.169 290.346 350.165 274.893 346.682C258.022 342.88 240.369 326.528 225.104 303.617C189.275 292.813 153.468 281.956 116.483 274.057C102.966 283.473 88.564 288.923 67.6398 280.495C50.5431 273.608 39.2704 263.335 39.1878 246.554C36.6136 242.126 31.3376 240.112 31.0374 235.878L29.4688 195.214L30.602 195.579L32.4107 235.793C34.1669 239.38 41.9498 244.038 45.267 242.407Z" fill="#0E3B82"/>
<path fill-rule="evenodd" clip-rule="evenodd" d="M45.0957 242.468L62.2823 246.615C70.5229 238.625 76.2718 228.139 80.0919 215.726L67.0481 213.445C55.16 222.042 47.6024 231.66 45.0957 242.468Z" fill="#124EAC"/>
<path fill-rule="evenodd" clip-rule="evenodd" d="M228.525 289.958C256.377 249.779 286.457 273.548 317.108 314.066C318.437 315.818 318.512 318.4 321.086 319.412L347.586 270.086C333.432 213.186 280.266 216.28 263.995 243.431L228.525 289.958Z" fill="#4183EB"/>
<path fill-rule="evenodd" clip-rule="evenodd" d="M120.408 172.332C136.183 184.585 146.608 200.403 154.556 217.881C170.279 224.109 186.753 224.038 203.609 227.772C223.34 232.145 243.356 242.949 263.8 243.351L228.331 289.878C189.034 283.263 151.847 274.537 117.766 262.697C109.083 227.896 70.7391 199.347 41.0039 235.606L62.5736 208.737C77.7038 191.221 96.7892 178.73 120.408 172.332Z" fill="#165FD1"/>
<path fill-rule="evenodd" clip-rule="evenodd" d="M155.179 218.055C170.79 224.137 187.136 224.095 203.865 227.801C223.596 232.174 243.612 242.978 264.056 243.38L228.586 289.907C189.29 283.292 152.102 274.566 118.021 262.726L154.811 217.91L155.179 218.055Z" fill="#1F6DE7"/>
<path fill-rule="evenodd" clip-rule="evenodd" d="M35.4219 196.967L36.345 233.834L59.7535 204.955L56.864 189.168L35.4219 196.967Z" fill="#124EAC"/>
<path fill-rule="evenodd" clip-rule="evenodd" d="M41.1604 235.653L36.5371 233.86L59.9457 204.981L64.6138 206.65L41.1604 235.653Z" fill="#1455BC"/>
<path fill-rule="evenodd" clip-rule="evenodd" d="M75.8596 205.962L77.068 194.67L84.9033 200.263C83.7925 189.504 81.3458 179.475 73.6081 172.332C70.9287 184.057 72.5273 195.14 75.8596 205.962Z" fill="#1660D3"/>
<path fill-rule="evenodd" clip-rule="evenodd" d="M23.8887 129.848C45.5484 137.335 71.2684 137.007 96.1703 144.999L113.687 183.646C114.393 181.661 115.503 180.769 116.201 178.893C119.151 170.906 121.883 163.65 125.688 160.656C128.037 158.838 129.005 155.743 128.105 152.911C124.9 142.822 118.956 124.23 118.956 124.23C96.1627 118.361 72.4392 117.579 52.6257 112.147C49.7363 111.309 46.6291 111.915 44.2725 113.776C37.4653 119.126 23.8887 129.848 23.8887 129.848Z" fill="#2C75E9"/>
<path fill-rule="evenodd" clip-rule="evenodd" d="M29.4688 125.524C51.1285 133.011 76.0379 132.261 100.932 140.253L116.873 180.187C117.759 179.017 119.222 177.084 119.815 175.47C122.847 167.193 125.204 160.057 128.881 157.144C131.223 155.325 132.176 152.24 131.276 149.418C128.071 139.321 122.142 120.771 122.142 120.771C99.3712 114.909 75.6703 114.122 55.8643 108.704C52.9523 107.858 49.8075 108.489 47.4434 110.396C41.7095 115 31.5327 123.214 31.5327 123.214L29.4688 125.524Z" fill="#508DED"/>
<path fill-rule="evenodd" clip-rule="evenodd" d="M30.584 122.872C52.2437 130.359 77.9637 130.031 102.866 138.023L120.382 176.67C123.707 167.308 127.865 162.224 132.616 160.239C135.986 158.816 137.719 155.055 136.601 151.567C132.736 139.418 125.651 117.253 125.651 117.253C102.858 111.385 79.1345 110.603 59.321 105.171C56.4316 104.333 53.3244 104.939 50.9678 106.8C44.1606 112.15 30.584 122.872 30.584 122.872Z" fill="#659BEF"/>
<path fill-rule="evenodd" clip-rule="evenodd" d="M73.6059 172.389L84.9011 200.32C91.8208 196.489 101.052 190.34 111.064 187.494C112.115 187.225 113.008 186.537 113.533 185.593C114.058 184.648 114.171 183.528 113.856 182.495C107.634 162.365 102.005 147.822 97.8098 142.421C83.0548 138.653 66.341 138.68 53.5448 135.834C42.6174 133.403 33.8814 129.451 25.2431 127.869L1.56445 149.556L73.6059 172.389Z" fill="#4183EB"/>
<path fill-rule="evenodd" clip-rule="evenodd" d="M73.6791 172.375C73.6791 172.375 75.3378 197.119 75.9982 206.933C76.0508 207.8 75.6679 208.638 74.9774 209.159C74.2795 209.681 73.3639 209.817 72.5533 209.518C52.4547 202.186 32.8589 195.398 16.5353 192.193C9.5631 190.86 4.22687 185.213 3.29624 178.178C1.70516 166.399 -1.19178 155.136 1.63764 149.542L73.6791 172.375Z" fill="#2471E8"/>
<path fill-rule="evenodd" clip-rule="evenodd" d="M329.04 328.664L375.654 288.092L368.419 177.324L327.869 166.007L329.04 328.664Z" fill="#347AEA"/>
<path fill-rule="evenodd" clip-rule="evenodd" d="M331.952 328.69L378.566 288.117L371.054 178.115L327.869 165.355L331.952 328.69Z" fill="#4385EB"/>
<path fill-rule="evenodd" clip-rule="evenodd" d="M334.952 331.785L381.566 291.213L373.918 178.893L329.729 166.007L334.952 331.785Z" fill="#538FED"/>
<path fill-rule="evenodd" clip-rule="evenodd" d="M310.01 144.277C326.078 140.286 349.727 132.224 362.215 126.027C364.752 124.768 363.206 118.073 362.215 112.615C367.942 122.101 366.688 140.519 361.532 141.962C358.425 142.833 325.77 147.387 310.01 144.277Z" fill="#5A8FE3"/>
</svg>
