<svg width="221" height="71" viewBox="0 0 221 71" fill="none" xmlns="http://www.w3.org/2000/svg">
<path d="M80.2725 22.7879C79.5956 22.5137 79.0127 22.0404 78.5971 21.4275C78.2012 20.823 77.997 20.1077 78.0125 19.3796V18.97C78.0116 18.94 78.0168 18.9102 78.0278 18.8825C78.0389 18.8547 78.0555 18.8297 78.0767 18.8091C78.0964 18.7892 78.1198 18.7738 78.1456 18.7637C78.1714 18.7537 78.1989 18.7492 78.2264 18.7506H80.2725C80.3 18.7492 80.3275 18.7537 80.3533 18.7637C80.3791 18.7738 80.4025 18.7892 80.4222 18.8091C80.4433 18.8297 80.46 18.8547 80.4711 18.8825C80.4821 18.9102 80.4873 18.94 80.4863 18.97V19.2479C80.4846 19.4977 80.5453 19.7439 80.6626 19.9628C80.78 20.1817 80.95 20.3662 81.1565 20.4986C81.6896 20.867 82.3254 21.0468 82.9673 21.0106C83.4758 21.0505 83.9815 20.9026 84.3931 20.5937C84.5422 20.4692 84.6619 20.3118 84.7434 20.1333C84.8248 19.9547 84.8659 19.7596 84.8636 19.5624C84.8651 19.2898 84.7628 19.0274 84.5785 18.831C84.3502 18.603 84.0816 18.4218 83.7871 18.2971C83.4592 18.1435 82.9316 17.9241 82.2045 17.6535C81.5018 17.411 80.8159 17.1202 80.1513 16.7831C79.5925 16.4945 79.1049 16.0793 78.7255 15.569C78.3344 15.0151 78.1338 14.3436 78.1551 13.6601C78.1404 12.9672 78.3373 12.2869 78.7183 11.7146C79.1052 11.1396 79.6445 10.6904 80.2725 10.42C81.0017 10.1094 81.7858 9.95745 82.5752 9.97386C83.4177 9.96035 84.2534 10.1298 85.0276 10.4712C85.7021 10.7743 86.2836 11.2596 86.7101 11.8755C87.1148 12.4932 87.3262 13.223 87.316 13.9673V14.2452C87.316 14.2739 87.3103 14.3023 87.2993 14.3287C87.2883 14.3551 87.2721 14.379 87.2519 14.3988C87.2317 14.4205 87.2074 14.4376 87.1803 14.4489C87.1533 14.4603 87.1242 14.4656 87.095 14.4646H85.0133C84.9572 14.4628 84.9038 14.4391 84.8641 14.3983C84.8243 14.3576 84.8012 14.3028 84.7995 14.2452V14.0916C84.8006 13.8364 84.7446 13.5843 84.6359 13.3548C84.5271 13.1253 84.3684 12.9245 84.1721 12.7678C83.6858 12.3775 83.0775 12.1825 82.4611 12.2192C81.9911 12.1904 81.525 12.3216 81.1351 12.5922C80.979 12.7077 80.853 12.8609 80.7685 13.0382C80.6839 13.2156 80.6433 13.4116 80.6503 13.6089C80.6441 13.8976 80.7461 14.1778 80.9355 14.3915C81.1723 14.6367 81.4564 14.8285 81.7696 14.9546C82.1355 15.1204 82.7059 15.3472 83.4806 15.6348C84.1668 15.8847 84.8402 16.1703 85.4981 16.4906C86.0091 16.7587 86.4586 17.1351 86.817 17.595C87.2229 18.1391 87.4298 18.812 87.4016 19.4966C87.4226 20.0249 87.3204 20.5507 87.1034 21.0303C86.8864 21.5099 86.5609 21.9294 86.154 22.2539C85.1694 22.9746 83.9753 23.3305 82.7677 23.2633C81.9135 23.2754 81.0654 23.1139 80.2725 22.7879V22.7879Z" fill="#1C307A"/>
<path d="M98.296 12.2998C98.2758 12.3215 98.2514 12.3386 98.2244 12.35C98.1974 12.3613 98.1683 12.3667 98.1391 12.3656H92.2219C92.2095 12.3645 92.197 12.3662 92.1852 12.3706C92.1735 12.375 92.1628 12.3819 92.154 12.391C92.1452 12.4001 92.1384 12.411 92.1341 12.423C92.1298 12.4351 92.1282 12.4479 92.1293 12.4607V15.3351C92.1282 15.3479 92.1298 15.3607 92.1341 15.3728C92.1384 15.3848 92.1452 15.3957 92.154 15.4048C92.1628 15.4139 92.1735 15.4208 92.1852 15.4252C92.197 15.4296 92.2095 15.4313 92.2219 15.4302H96.1144C96.1435 15.43 96.1723 15.4357 96.1993 15.447C96.2262 15.4583 96.2507 15.475 96.2713 15.496C96.2912 15.5173 96.3065 15.5426 96.3163 15.5703C96.3262 15.598 96.3302 15.6275 96.3283 15.6569V17.4561C96.3297 17.4844 96.3253 17.5126 96.3155 17.539C96.3057 17.5655 96.2906 17.5895 96.2713 17.6097C96.2507 17.6307 96.2262 17.6474 96.1993 17.6587C96.1723 17.67 96.1435 17.6757 96.1144 17.6755H92.2219C92.2095 17.6744 92.197 17.6761 92.1852 17.6805C92.1735 17.6849 92.1628 17.6919 92.154 17.7009C92.1452 17.71 92.1384 17.7209 92.1341 17.733C92.1298 17.745 92.1282 17.7579 92.1293 17.7706V22.8904C92.129 22.947 92.1087 23.0015 92.0722 23.044C92.0516 23.065 92.0271 23.0816 92.0002 23.0929C91.9733 23.1042 91.9445 23.1099 91.9154 23.1098H89.7767C89.7475 23.1108 89.7184 23.1055 89.6914 23.0941C89.6643 23.0828 89.64 23.0657 89.6198 23.044C89.5996 23.0241 89.5834 23.0003 89.5724 22.9739C89.5614 22.9475 89.5557 22.9191 89.5557 22.8904V10.3543C89.5557 10.3256 89.5614 10.2972 89.5724 10.2708C89.5834 10.2444 89.5996 10.2205 89.6198 10.2007C89.64 10.179 89.6643 10.1619 89.6914 10.1506C89.7184 10.1392 89.7475 10.1339 89.7767 10.1349H98.1177C98.1469 10.1339 98.176 10.1392 98.203 10.1506C98.2301 10.1619 98.2544 10.179 98.2746 10.2007C98.2948 10.2205 98.311 10.2444 98.322 10.2708C98.333 10.2972 98.3387 10.3256 98.3387 10.3543V12.1608C98.3409 12.2109 98.3258 12.2601 98.296 12.2998Z" fill="#1C307A"/>
<path d="M102.225 22.7075C101.54 22.3595 100.968 21.816 100.578 21.1423C100.176 20.4348 99.9716 19.6278 99.9861 18.8092V10.3543C99.9861 10.3256 99.9918 10.2972 100.003 10.2708C100.014 10.2444 100.03 10.2205 100.05 10.2007C100.07 10.179 100.095 10.1619 100.122 10.1506C100.149 10.1392 100.178 10.1339 100.207 10.1349H102.346C102.402 10.1367 102.455 10.1604 102.495 10.2012C102.535 10.2419 102.558 10.2967 102.56 10.3543V18.8311C102.56 19.4131 102.785 19.9712 103.186 20.3827C103.587 20.7941 104.131 21.0253 104.698 21.0253C105.266 21.0253 105.81 20.7941 106.211 20.3827C106.612 19.9712 106.837 19.4131 106.837 18.8311V10.3543C106.837 10.3256 106.843 10.2972 106.854 10.2708C106.865 10.2444 106.881 10.2205 106.901 10.2007C106.921 10.179 106.946 10.1619 106.973 10.1506C107 10.1392 107.029 10.1339 107.058 10.1349H109.197C109.225 10.134 109.253 10.1394 109.279 10.1508C109.305 10.1621 109.328 10.1792 109.347 10.2007C109.367 10.2205 109.383 10.2444 109.394 10.2708C109.405 10.2972 109.411 10.3256 109.411 10.3543V18.8092C109.428 19.6272 109.226 20.4342 108.826 21.1423C108.436 21.816 107.864 22.3595 107.179 22.7075C106.411 23.0734 105.574 23.263 104.727 23.263C103.88 23.263 103.043 23.0734 102.275 22.7075H102.225Z" fill="#1C307A"/>
<path d="M83.2113 61.7422C81.4111 61.0083 79.858 59.753 78.7413 58.1291C77.681 56.5151 77.1332 54.6042 77.1729 52.6583V51.5685C77.1712 51.4895 77.1856 51.411 77.215 51.338C77.2445 51.2649 77.2884 51.199 77.344 51.1443C77.396 51.0875 77.459 51.0425 77.529 51.0122C77.599 50.982 77.6744 50.9672 77.7504 50.9688H83.254C83.4091 50.9688 83.5578 51.032 83.6674 51.1444C83.777 51.2569 83.8386 51.4094 83.8386 51.5685V52.2999C83.8446 52.9645 84.0104 53.6173 84.3213 54.2004C84.6322 54.7835 85.0786 55.2788 85.6209 55.6424C87.0419 56.6246 88.7363 57.1048 90.4473 57.0101C92.1583 57.0101 93.4297 56.6371 94.2614 55.891C94.6598 55.56 94.9798 55.1405 95.1971 54.6641C95.4145 54.1877 95.5235 53.6669 95.5161 53.141C95.5242 52.7712 95.4603 52.4035 95.3281 52.0594C95.1959 51.7152 94.998 51.4017 94.7462 51.137C94.1432 50.5188 93.4321 50.0226 92.6502 49.6742C91.7591 49.2573 90.3546 48.6868 88.4226 47.9627C86.5438 47.3218 84.7117 46.5446 82.9404 45.6369C81.4627 44.86 80.1758 43.7498 79.1762 42.3895C78.1328 40.9185 77.5983 39.132 77.6577 37.3137C77.6193 35.463 78.1425 33.6458 79.1548 32.1135C80.1936 30.5938 81.6328 29.409 83.3039 28.6979C85.2446 27.8675 87.3327 27.4614 89.435 27.5057C91.6802 27.4797 93.9047 27.9486 95.9581 28.8807C97.7614 29.6797 99.3153 30.9728 100.449 32.6181C101.537 34.2597 102.1 36.2072 102.061 38.1913V38.9227C102.064 39.0002 102.05 39.0774 102.022 39.1492C101.994 39.2211 101.951 39.286 101.897 39.3396C101.843 39.3967 101.779 39.4417 101.708 39.472C101.637 39.5022 101.56 39.5169 101.483 39.5152H95.9581C95.8823 39.5159 95.8071 39.5007 95.7373 39.4705C95.6674 39.4403 95.6042 39.3958 95.5517 39.3396C95.4963 39.2863 95.4525 39.2217 95.423 39.1499C95.3935 39.078 95.3791 39.0007 95.3807 38.9227V38.5278C95.3818 37.8464 95.2331 37.1735 94.9455 36.5593C94.6578 35.9451 94.2388 35.4054 93.7196 34.9805C92.4207 33.9438 90.8001 33.4242 89.1569 33.5178C87.8955 33.4378 86.6432 33.7847 85.5924 34.5051C85.1772 34.8157 84.843 35.2264 84.6192 35.7009C84.3954 36.1754 84.2889 36.6992 84.3092 37.2259C84.2781 37.9887 84.5333 38.7347 85.0221 39.3104C85.6549 39.9638 86.412 40.4767 87.2463 40.817C88.223 41.2632 89.7487 41.8703 91.809 42.6309C93.6395 43.2951 95.436 44.0543 97.1914 44.9055C98.5535 45.6148 99.7537 46.6119 100.713 47.8311C101.805 49.2791 102.361 51.0778 102.282 52.907C102.338 54.3168 102.065 55.72 101.486 56.9999C100.907 58.2797 100.038 59.3991 98.9523 60.2648C96.778 62.1079 93.7623 63.0148 89.9697 63.0148C87.6562 63.0638 85.357 62.6309 83.2113 61.7422V61.7422Z" fill="#1C307A"/>
<path d="M112.826 61.5515C111.003 60.6149 109.479 59.1634 108.434 57.3679C107.365 55.4824 106.823 53.3317 106.866 51.1511V28.5365C106.864 28.4574 106.878 28.3789 106.908 28.3059C106.937 28.2329 106.981 28.1669 107.037 28.1122C107.088 28.055 107.151 28.0098 107.221 27.9795C107.292 27.9492 107.367 27.9347 107.443 27.9367H113.068C113.223 27.9367 113.372 27.9999 113.481 28.1124C113.591 28.2248 113.653 28.3774 113.653 28.5365V51.1657C113.653 52.7176 114.253 54.2058 115.323 55.3031C116.393 56.4004 117.843 57.0169 119.356 57.0169C120.868 57.0169 122.319 56.4004 123.389 55.3031C124.458 54.2058 125.059 52.7176 125.059 51.1657V28.5365C125.059 28.3787 125.12 28.2272 125.228 28.1149C125.336 28.0027 125.483 27.9386 125.637 27.9367H131.29C131.444 27.9386 131.591 28.0027 131.699 28.1149C131.807 28.2272 131.867 28.3787 131.867 28.5365V51.1218C131.907 53.302 131.364 55.4517 130.299 57.3387C129.256 59.146 127.729 60.6081 125.9 61.5515C123.85 62.5296 121.617 63.0364 119.356 63.0364C117.095 63.0364 114.861 62.5296 112.811 61.5515H112.826Z" fill="#1C307A"/>
<path d="M155.335 62.1665L149.304 48.4456C149.28 48.3866 149.239 48.3363 149.187 48.3011C149.135 48.266 149.074 48.2475 149.012 48.2481H144.52C144.487 48.2432 144.454 48.2462 144.422 48.257C144.391 48.2678 144.362 48.2859 144.338 48.3101C144.315 48.3342 144.297 48.3637 144.287 48.3961C144.276 48.4285 144.273 48.463 144.278 48.4968V62.0202C144.279 62.1759 144.22 62.3256 144.114 62.4371C144.061 62.4942 143.996 62.5392 143.925 62.5694C143.854 62.5996 143.778 62.6144 143.701 62.6126H138.054C137.901 62.6126 137.753 62.5505 137.643 62.4396C137.534 62.3287 137.472 62.178 137.47 62.0202V28.5371C137.47 28.378 137.531 28.2255 137.641 28.113C137.751 28.0005 137.899 27.9373 138.054 27.9373H151.863C153.74 27.9036 155.597 28.3458 157.267 29.2246C158.794 30.0555 160.051 31.3268 160.882 32.8815C161.762 34.5718 162.204 36.4657 162.165 38.3816C162.22 40.4337 161.646 42.4518 160.525 44.1523C159.404 45.7745 157.789 46.9683 155.934 47.546C155.9 47.5547 155.868 47.5715 155.841 47.595C155.814 47.6185 155.793 47.6481 155.779 47.6814C155.766 47.7147 155.759 47.7509 155.762 47.787C155.764 47.8232 155.774 47.8583 155.792 47.8897L162.357 61.9105C162.41 62.0025 162.444 62.1045 162.457 62.2104C162.457 62.4737 162.279 62.6053 161.923 62.6053H155.984C155.846 62.6044 155.711 62.5625 155.596 62.4846C155.481 62.4067 155.39 62.2962 155.335 62.1665V62.1665ZM144.278 34.1834V42.6529C144.274 42.6862 144.278 42.7198 144.289 42.7513C144.3 42.7827 144.318 42.8112 144.342 42.8345C144.365 42.8578 144.393 42.8753 144.424 42.8856C144.455 42.896 144.488 42.899 144.52 42.8943H150.851C152.07 42.948 153.259 42.5034 154.159 41.6583C154.584 41.2464 154.918 40.7463 155.139 40.1913C155.361 39.6364 155.464 39.0393 155.442 38.4401C155.462 37.8368 155.358 37.236 155.137 36.6765C154.916 36.1171 154.583 35.6116 154.159 35.1927C153.717 34.7683 153.196 34.4385 152.628 34.2225C152.06 34.0065 151.456 33.9087 150.851 33.9348H144.528C144.494 33.9285 144.46 33.9306 144.427 33.9408C144.395 33.951 144.365 33.969 144.34 33.9933C144.316 34.0176 144.298 34.0475 144.287 34.0806C144.276 34.1137 144.273 34.1489 144.278 34.1834V34.1834Z" fill="#1C307A"/>
<path d="M172.432 61.4713C170.589 60.5055 169.055 59.0181 168.012 57.1853C166.938 55.2489 166.396 53.0497 166.443 50.8222V39.727C166.399 37.4906 166.941 35.2831 168.012 33.3346C169.048 31.4972 170.584 30.0102 172.432 29.056C174.474 28.0686 176.704 27.5566 178.962 27.5566C181.22 27.5566 183.45 28.0686 185.492 29.056C187.285 29.9694 188.803 31.3647 189.884 33.0933C190.929 34.7903 191.474 36.7614 191.452 38.7689V39.1126C191.454 39.1916 191.44 39.2701 191.41 39.3432C191.381 39.4162 191.337 39.4821 191.281 39.5368C191.172 39.6455 191.027 39.7059 190.875 39.7051H185.221C185.07 39.7059 184.924 39.6455 184.815 39.5368C184.759 39.4821 184.716 39.4162 184.686 39.3432C184.657 39.2701 184.642 39.1916 184.644 39.1126V38.9663C184.66 38.2512 184.53 37.5406 184.264 36.8795C183.998 36.2185 183.6 35.6215 183.097 35.1265C181.942 34.106 180.465 33.5526 178.941 33.5701C177.417 33.5876 175.952 34.1748 174.82 35.2216C174.29 35.8011 173.879 36.4832 173.61 37.228C173.34 37.9727 173.219 38.7651 173.252 39.5588V51.0197C173.22 51.8238 173.355 52.6257 173.646 53.373C173.937 54.1203 174.378 54.7963 174.941 55.3568C175.513 55.9082 176.185 56.3386 176.919 56.6235C177.653 56.9084 178.434 57.0421 179.219 57.0171C180.674 57.0943 182.105 56.6059 183.225 55.6494C183.732 55.1703 184.129 54.5822 184.388 53.9272C184.646 53.2721 184.761 52.5665 184.722 51.8608V49.6666C184.727 49.6328 184.724 49.5983 184.714 49.5659C184.703 49.5335 184.685 49.5041 184.662 49.4799C184.638 49.4558 184.61 49.4376 184.578 49.4268C184.547 49.4161 184.513 49.413 184.48 49.4179H179.069C178.993 49.4195 178.918 49.4047 178.848 49.3745C178.778 49.3443 178.715 49.2993 178.663 49.2424C178.607 49.1877 178.563 49.1218 178.534 49.0487C178.504 48.9757 178.49 48.8972 178.492 48.8182V44.2324C178.491 44.1546 178.506 44.0775 178.535 44.0058C178.565 43.9341 178.608 43.8693 178.663 43.8155C178.715 43.7586 178.778 43.7136 178.848 43.6834C178.918 43.6531 178.993 43.6383 179.069 43.6399H190.853C191.006 43.6418 191.152 43.7049 191.26 43.8156C191.368 43.9262 191.429 44.0758 191.431 44.2324V50.771C191.487 53.0525 190.953 55.3085 189.884 57.3097C188.882 59.1395 187.367 60.6177 185.535 61.5517C183.499 62.561 181.259 63.0622 178.998 63.0145C176.719 63.0604 174.464 62.5304 172.432 61.4713V61.4713Z" fill="#1C307A"/>
<path d="M203.714 33.9344H219.548C219.703 33.9344 219.851 33.8712 219.961 33.7588C220.071 33.6463 220.132 33.4937 220.132 33.3347V28.5368C220.132 28.3777 220.071 28.2251 219.961 28.1127C219.851 28.0002 219.703 27.937 219.548 27.937H197.248C197.093 27.937 196.944 28.0002 196.834 28.1127C196.725 28.2251 196.663 28.3777 196.663 28.5368V62.0199C196.665 62.1777 196.727 62.3284 196.837 62.4393C196.946 62.5502 197.094 62.6123 197.248 62.6123H219.548C219.701 62.6123 219.849 62.5502 219.958 62.4393C220.068 62.3284 220.13 62.1777 220.132 62.0199V57.2146C220.132 57.0556 220.071 56.903 219.961 56.7906C219.851 56.6781 219.703 56.6149 219.548 56.6149H203.714C203.55 56.6149 203.471 56.5345 203.471 56.3735V48.3282C203.471 48.1673 203.55 48.0869 203.714 48.0869H216.439C216.604 48.0869 216.761 48.0198 216.878 47.9005C216.994 47.7812 217.059 47.6193 217.059 47.4506V42.7404C217.059 42.5716 216.994 42.4098 216.878 42.2905C216.761 42.1711 216.604 42.1041 216.439 42.1041H203.714C203.681 42.109 203.647 42.1059 203.616 42.0952C203.584 42.0844 203.555 42.0662 203.532 42.0421C203.508 42.0179 203.491 41.9885 203.48 41.9561C203.47 41.9237 203.467 41.8892 203.471 41.8554V34.1831C203.467 34.1493 203.47 34.1148 203.48 34.0824C203.491 34.05 203.508 34.0206 203.532 33.9964C203.555 33.9723 203.584 33.9541 203.616 33.9433C203.647 33.9326 203.681 33.9295 203.714 33.9344V33.9344Z" fill="#1C307A"/>
<path d="M34.5201 70.7965C53.3483 70.7965 68.6115 55.1376 68.6115 35.8214C68.6115 16.5051 53.3483 0.846191 34.5201 0.846191C15.6919 0.846191 0.428711 16.5051 0.428711 35.8214C0.428711 55.1376 15.6919 70.7965 34.5201 70.7965Z" fill="#1C307A"/>
<path d="M27.3684 60.8204L38.6752 44.8833L31.3393 30.1897L45.8471 23.044L36.786 7.61158L67.6336 44.13C69.3182 37.0632 68.8129 29.6333 66.1879 22.8749C63.563 16.1166 58.9492 10.3662 52.989 6.42457C47.0287 2.48289 40.0187 0.546114 32.9351 0.883931C25.8515 1.22175 19.0469 3.81734 13.4688 8.30928C7.89064 12.8012 3.81671 18.9659 1.81424 25.9449C-0.188228 32.9239 -0.0195482 40.3699 2.29679 47.2459C4.61313 54.1219 8.96182 60.0858 14.7373 64.307C20.5128 68.5283 27.4277 70.7967 34.5189 70.7966H35.1249L27.3684 60.8204Z" fill="#568CDB"/>
<path d="M45.8402 23.0437L36.6152 6.90918L24.6953 38.2713L45.8402 23.0437Z" fill="#FFCA61"/>
<path d="M34.2051 31.3672L45.854 46.2803L24.6592 38.3227L34.2051 31.3672Z" fill="url(#paint0_linear)"/>
<path d="M45.8539 46.2803L27.3682 60.8204L32.993 41.4531L45.8539 46.2803Z" fill="#FFCA61"/>
<defs>
<linearGradient id="paint0_linear" x1="39.5939" y1="49.9936" x2="30.0261" y2="33.8435" gradientUnits="userSpaceOnUse">
<stop stop-color="#FAAF40"/>
<stop offset="0.28" stop-color="#FAAB3D"/>
<stop offset="0.57" stop-color="#FC9E34"/>
<stop offset="0.87" stop-color="#FE8A26"/>
<stop offset="1" stop-color="#FF7E1E"/>
</linearGradient>
</defs>
</svg>
